<svg version="1.0" xmlns="http://www.w3.org/2000/svg" width="1237.333" height="1237.333" viewBox="0 0 928 928"><path d="M78.1 138.6c-34.8 37.2-63 68.2-62.7 68.9.2.6 40.6 53.1 89.7 116.6 49.1 63.5 110.8 143.3 137.2 177.4 26.4 34.1 48.4 62.5 48.9 63.2.5.7 1.8 8.3 2.9 17 6.3 51 20.2 93.5 43.2 131.8 33.5 55.8 85.4 99.3 150.2 125.9 22.7 9.2 51.3 17.5 64.1 18.3 6.8.5 7.2.4 10.7-2.6 6.1-5.4 7.2-13.6 2.6-19.5-1.2-1.5-4.9-4.5-8.2-6.8-36.5-24.6-73.4-59.7-93.9-89.3-11.8-17-20.4-34.8-24.9-51.3-5.1-18.9-2.8-63.2 4.3-83.5 1.6-4.4 22.7-32.6 24.5-32.7 3.4-.1 57.2 49.3 103.9 95.2 13.2 13 25.3 24.2 26.8 24.8 4 1.5 8.8 1.2 11.6-.7 1.4-.9 12.4-11.3 24.5-23.2 27.5-27 54.3-52.4 74.9-70.9 15.9-14.4 36-31.4 37.6-32 1.3-.5 9.2 15.6 12.9 26.1 8.7 24.6 13.1 56.8 11 79.6-2.8 30.7-22 69.2-52 104.4-4.6 5.4-9.2 11.2-10.2 13-4 7.2.5 17.6 8.5 19.8 3.8 1 5.2.8 13.8-2 9.9-3.3 33.8-14.4 44.3-20.7 72.8-43.5 119.3-109.9 134.2-191.6 6.5-35.8 7.2-75.9 1.9-106.7-9.1-53.1-36.8-109.6-78.3-159.6-14.3-17.2-38.7-41.3-43.2-42.6-9.1-2.8-3.2-7.9-98.9 87.7L602.5 460l-13.9-13.9c-8.9-8.9-13.7-14.4-13.3-15.4.3-.7 9.7-13.3 20.9-27.8 22.1-28.6 73.4-95.2 121.7-157.7 16.6-21.6 30.1-39.6 29.9-40.1-.2-.5-28.6-30.9-63.3-67.5L621.6 71H141.3l-63.2 67.6zm595.9 6.3c31.6 33.5 57.4 61.3 57.2 61.8-.1.4-37.5 49.1-83 108L565.5 422l-68-67.9c-37.4-37.3-69.1-68.4-70.3-69.1-3.5-1.7-10.9-1.4-14 .6-4.6 2.9-29.2 28.3-39.7 40.9-5.5 6.6-13.6 16.9-17.9 22.8l-7.8 10.8-7.2-.6c-66-5.7-102.5-10.7-148.1-20.4-7.7-1.6-14.1-2.9-14.2-2.7-.1.1 15.1 21.6 33.8 47.7 18.7 26 34.4 48.1 34.9 48.9.7 1.2 2.3.1 7.8-5.3 7.7-7.3 16.8-12.3 28.2-15.4 7.4-2 32.2-2.5 33.9-.8.8.8-.3 4.3-3.4 11.4-5.8 13.4-13.7 37.7-16.5 51.1-1.2 5.8-2.4 11.1-2.6 11.8-.3 1-1.3 1.2-3.6.7l-3.2-.8 2.8 3.7 2.8 3.7-1.1 10c-.6 5.5-1.1 16.5-1.1 24.4 0 8-.3 14.5-.7 14.5-1-.1-258.9-333.6-258.7-334.5.1-.4 26-28.3 57.5-62.1L146.5 84h470l57.5 60.9zM602.5 478c.5 0 41.8-40.8 91.7-90.7l90.8-90.8 13.8 14c47.1 47.9 80.7 104.4 94.7 159.5 5.7 22.5 6.9 33.4 6.9 62.5 0 34.4-2.9 57.1-10.9 85.6-18.1 64.1-60.6 119.2-119.3 154.2-18.8 11.2-49.3 24.9-50.7 22.7-.3-.5 2.5-4.3 6.3-8.7 29.3-34 49.5-71.5 55.8-104 3-15.2 2.1-42.2-2.2-64.8-3.8-19.6-11.7-42.4-19.1-55.1-5.2-9-11.6-12.1-18.9-9.3-8.3 3.1-50.1 40.7-111.4 100l-27.4 26.6-31.6-30.5c-37-35.8-63.9-60.8-87.7-81.2-14.1-12.2-17.8-14.9-21.2-15.5-5.1-.8-10 .7-13.3 4.3-6 6.3-18.8 37.5-22.3 54-4.8 23.3-6 57.3-2.4 74.5 9.4 46.4 48.7 97.6 109.9 143.3 7.4 5.6 14.9 10.9 16.7 11.9 3.7 2.2 5 4.5 2.5 4.5-6.8 0-37.5-8.8-55.2-15.7-111.2-43.5-178.6-132.5-191-252.4-2.8-26.3-3.5-53.6-1.8-66.6l1.3-10.1 26.5 36.5c22.1 30.5 35.2 48.4 46.8 64.2l1.7 2.3 36.7-50.3c20.1-27.7 36.5-50.6 36.3-50.7-.2-.2-2.7.3-5.7 1.2-6.2 1.7-25.8 5.4-33.8 6.2-7.2.8-39.9.8-47.3 0-9.1-.9-25.5-3.5-33.2-5.3-3.8-.8-7.7-1.6-8.5-1.7-.8-.1-5.4-1.3-10.2-2.6l-8.8-2.3.6-5.6c1.7-18.4 11.3-49.5 22.3-72.4l5.1-10.8 2.4 1.7c1.4.8 2.6 1.5 2.8 1.3.2-.1 2.8 1.2 5.8 2.9 10.6 6.1 21 16.1 26.2 25.3l2.2 3.9 20.5.2c49.1.6 70.8-.8 86.6-5.9 18.1-5.7 30.4-17.6 33-31.6.9-4.5-1.4-11.3-4.8-14.5-5.9-5.5-25.2-12.5-40.2-14.6-2.2-.3-6.7-1-10-1.6-6.3-1.1-41.8-4.5-57-5.4-4.9-.4-15.9-1.1-24.3-1.7-8.4-.6-16.2-.9-17.2-.6-1.5.4-1.1-.6 1.8-5.2 9.3-14.7 28-37.1 45.5-54.5l12-11.8 90.6 90.6c49.8 49.8 91.1 90.6 91.6 90.6zm-371-117.6c27.2 4.6 50.2 7.5 84 10.6 11.6 1.1 21.6 2 22.2 2 .8 0-.3 2.6-2.5 6.2-2.1 3.5-5.5 9.4-7.6 13.1-2.8 5-4.2 6.7-5.3 6.3-.9-.4-5.8-1.1-10.9-1.6-20.4-2.1-42.2 2.9-56.9 13-2.6 1.8-4.8 3-5 2.8-1.1-1.1-39.5-55-39.5-55.5 0-.3 1.5-.3 3.3 0 1.7.3 10 1.7 18.2 3.1zM380 375c75.3 4.8 102.8 8.9 120.2 18.2 5.8 3.1 8.8 6.7 8.8 10.6 0 4.2-3.5 11.5-7.7 16.2-13.3 14.8-46.2 20.7-103.5 18.5l-19.6-.7-5.4-7.1c-6.8-9.2-16.7-17.4-26.7-22.3-4.4-2.1-8-4.3-8-4.8-.1-1.1 7.5-14.4 13.5-23.8 4.2-6.5 4.3-6.6 8.1-6.2 2.1.2 11.2.9 20.3 1.4zm-20 139.4c28 3.3 45.8 3 69.8-1 5.2-.9 9.6-1.4 9.8-1.1.7.6-56.6 79.2-58 79.5-.6.1-4.5-4.4-8.6-10-4-5.7-16.4-22.7-27.3-37.8-26-35.7-25.7-35.3-25.7-36 0-.4 6.2.6 13.8 2.2 7.5 1.5 19.3 3.5 26.2 4.2z"/><path d="M138.9 170.7c-21.6 24.7-39.8 45.8-40.6 47-.9 1.3-1.3 3.3-.9 4.6.5 2.1 42.6 62 46.1 65.6 1.2 1.2 1.5 1.1 1.9-1 4-17.6 8.1-33.5 11.2-42.4 13.9-41.3 34.6-74.9 64.2-104.3l14.3-14.2H178l-39.1 44.7zm59.7-27.5c-8.1 9.7-18.7 23.9-25 33.8-12.5 19.6-26.4 50.1-32.8 72.2-1.2 4.3-2.4 7.8-2.8 7.7-.6 0-24.3-33.2-24.8-34.8-.2-.5 12.2-15.3 27.4-32.8 15.3-17.5 31.4-36 35.8-41l8.1-9.3h17.8l-3.7 4.2zM484 132.4c13.4 8.9 22.5 18.8 32.7 35.4l2 3.4 4.8-5.9c7.9-9.6 11.5-19.9 11.5-32.8V126h-60.5l9.5 6.4zm37 7.8c0 2.2-1.2 5.8-1.9 5.8-.3 0-1.9-1.6-3.4-3.5l-2.8-3.5h4.1c2.5 0 4 .5 4 1.2z"/><path d="M346.5 127.7c-29.2 2.5-57.2 10.6-73.7 21.2-18.8 12.1-29.8 30.1-30 49.4-.4 24.1 20.9 42.4 59.3 51.1 19.9 4.5 29.1 5 86.9 5.1 59.9.1 65.9.5 93.6 6.1 39.7 8 69.9 25 87 48.9 2.4 3.5 6.8 11.4 9.7 17.5l5.3 11.2 40.7-57.5c22.4-31.6 40.9-58.1 41.2-58.9.3-.8-12.8-17-32.7-40.3l-33.3-38.9-.5 40-.5 39.9h-96.9l-1.3-7.5c-8.1-48.2-44.4-78.7-103.2-86.5-9.6-1.3-40.5-1.8-51.6-.8zM396 142c4.7.6 13.2 2.1 18.9 3.5 45.1 11 71.4 39.7 74 81l.6 9 61.7.3 61.8.2.2-28.7.3-28.6 18.3 21.4c10 11.7 18.1 21.7 18 22.1-.5 1.4-62.3 88.7-62.8 88.7-.3 0-2.5-3.2-5-7.1-5.7-9-18.3-21.9-28-28.7-25.2-17.7-55.8-27.8-99.1-32.8-13.1-1.5-22.5-1.7-62.4-1.5-51.2.3-65.9-.5-84.9-4.4-27-5.7-43-14.7-49.2-27.9-7.1-14.9 3.3-37.1 22.8-48.7 26.2-15.6 71.4-22.6 114.8-17.8z"/></svg>