<svg version="1.0" xmlns="http://www.w3.org/2000/svg" width="1280" height="1280" viewBox="0 0 960 960"><path d="M180.6 103.9c-3.5 2.5-9.3 7-12.7 9.9-3.4 3-7.7 6.1-9.5 6.9-1.8.9-3.7 2.5-4.3 3.7-.7 1.2-4.6 4.8-8.7 8.1-4.2 3.3-14.6 12.5-23.2 20.6-8.7 8-19.1 17.3-23.2 20.8-4.1 3.5-10.9 9.8-15.2 14-4.2 4.2-12.4 11.9-18.4 17.1-5.9 5.2-15.9 14.5-22.3 20.6-6.4 6.2-13.5 12.9-15.7 15-2.3 2.2-5.3 6-6.7 8.5l-2.6 4.6 2.9 4.6c1.6 2.5 2.5 4.7 1.9 4.9-.5.2 2.7 4.1 7.1 8.7 9.7 10.1 15.6 17 17.4 20.5.7 1.4 3.7 4.9 6.6 7.7 2.8 2.9 7.8 8.6 11 12.8 3.2 4.2 6.6 8.3 7.4 9.1.9.8 5.6 6.2 10.5 12 5 5.8 10.7 12.3 12.8 14.5 2.2 2.2 8.8 10 14.7 17.3 6 7.4 11.5 13.6 12.2 13.9.8.3 1.4 1.1 1.4 1.9 0 .8.4 1.4.9 1.4 1 0 13 13.7 13.8 15.8.3.8 6.1 7 12.9 13.9 11.1 11.1 27.8 29.5 35.8 39.3 1.6 1.9 5.9 6.9 9.6 11 8.5 9.4 16.7 18.8 27.1 31 4.5 5.2 10.8 12.4 14.1 16 3.3 3.6 10 11.4 14.9 17.5 4.8 6 9.7 11.6 10.8 12.3 1.2.7 2.1 1.9 2.1 2.7 0 .8.4 1.5.9 1.5.6 0 4.5 4.2 8.8 9.4 7.4 8.9 18.9 22.2 29.8 34.6 2.8 3.1 7.3 8.3 10 11.5 2.8 3.2 6.7 7.8 8.8 10.1 2 2.2 3.7 4.6 3.7 5.2 0 .6 1.6 2.4 3.5 3.9s3.5 3 3.5 3.3c0 .3 2.9 3.6 6.4 7.3 3.5 3.8 7 8 7.7 9.5.8 1.4 4.8 6 8.9 10.2 4.2 4.1 8.9 9.3 10.5 11.5 4.9 6.6 14.7 18 16 18.5 2 .8 13.5 14.7 12.8 15.4-.4.3 3.3 4.6 8.2 9.3l8.8 8.7.5 77.6c.2 42.6.5 77.6.6 77.7 0 0 12.5.5 27.6 1l27.5 1-28.2.1c-18.1.1-28.3.6-28.3 1.2 0 .7 19.3 1 56 1 52.7 0 56-.1 56-1.8 0-.9.7-24.4 1.5-52.2 1-33.5 1.2-50.6.5-50.8-1.3-.5-1.3-12.3.1-15.8.7-2 .7-3.4-.1-4.9-.7-1.3-.8-2.9-.2-4.5.6-1.5.6-3.6 0-5.3-1.2-3.3-3.5-.2 21.2-28.7 23.6-27.2 35.7-40 38-40 2.2 0 5.7 3.8 6.5 7.2.6 2.3 1.3 2.8 3.6 2.8 2.4 0 2.9.4 2.9 2.6 0 1.5 1.6 4.4 4 7.3 5 5.9 5.1 7.2.3 3.5l-3.8-2.8 3.4 3.9c1.9 2.2 4 3.9 4.7 3.7.6-.1 3.9 2.7 7.3 6.3 4.3 4.7 6.1 7.4 6.1 9.3.1 3.3 2.5 6.7 4.7 6.7 2.6 0 15.6 15.4 28.8 33.9 2.2 3.1 4.4 5.6 4.9 5.6 2.6 0-1-12.4-9.8-33.7-5.2-12.5-25.6-63.3-45.4-112.8-19.8-49.5-41.9-104.6-49.1-122.5-14.7-36.7-15.1-36.1 5.7-9 10.5 13.7 19.3 23.7 26 29.5 2.9 2.5 8.2 9.9 8.2 11.4 0 1.8 4.1 6.5 10.3 11.8 2.5 2.1 3.7 4 3.7 5.8 0 3.2 3.8 8.5 6.1 8.5 2.2 0 4.9 3.7 4.9 6.6 0 1.1 2.7 5.6 6 10 3.3 4.3 6 8.7 6 9.6 0 1.6 1.1 2.3 3.3 1.9.4 0 .7.9.7 2.1 0 3.9 4 10.6 7.1 12 1.6.7 2.9 1.7 2.9 2.1 0 .5 1 .7 2.2.5 1.3-.2 2.5-1.4 3.1-3.2.6-1.7 2.3-4.1 3.8-5.4 1.6-1.3 2.6-2.8 2.3-3.3-.3-.5 1.2-2.7 3.3-4.8 8.3-8.4 19.3-20.5 19.3-21.4 0-1.5 5.2-7.7 12.7-15 4.1-3.9 8.7-9.2 10.3-11.7 1.7-2.5 7.6-9.4 13.2-15.3s10.3-11.5 10.4-12.4c.2-.9 1.7-3.1 3.3-4.7 8.1-8.1 19.1-20.1 19.1-20.9 0-1.6 5.4-8 14.7-17.2 5.1-5.1 9.3-10 9.3-10.8 0-.9 4.8-6.6 10.7-12.7 5.9-6.1 11.3-12.4 11.9-13.9.8-1.9 2.2-3 4.2-3.4 1.8-.4 3.9-1.8 4.9-3.3 1-1.5 3.9-4.8 6.6-7.3 2.7-2.5 7.5-8.2 10.7-12.6 3.2-4.4 9.1-11.2 13-15 4-3.9 8.7-9.3 10.5-12 1.8-2.8 7.8-9.7 13.4-15.4 5.5-5.7 9.8-10.8 9.5-11.2-.3-.5 1.2-2.6 3.3-4.7 10.3-10.5 16.3-17.4 20-22.8 2.2-3.3 7.6-9.4 11.9-13.6 4.4-4.2 9-9.5 10.4-11.8 1.4-2.3 7-8.8 12.5-14.4 8.3-8.5 9.9-10.7 9.7-12.9-.2-1.7-1-2.7-2-2.8-1.1 0-1.2-.3-.4-.6.6-.2 1.2-1.3 1.2-2.3 0-1 .6-2.1 1.3-2.3 1.4-.6-23.4-25.1-48.8-48.2-17-15.5-24.2-22-46.5-42.4-5.8-5.2-12.2-11.4-14.3-13.6-2.1-2.1-6.7-6.2-10.2-9-5.8-4.5-27.8-23.1-39.6-33.6l-4.7-4-293-.4-293.1-.3-6.5 4.7zM781 117.5c6.3 6.4 14 13.2 17 15.2 7.7 5.1 19.9 15.4 33.2 28.1 17 16.3 23.4 22.2 27 24.9 3.1 2.2 22.8 20.6 36.2 33.8 3.4 3.3 6.4 5.9 6.7 5.8.4-.1 5.8 4.7 12.2 10.8 13.7 13.1 13.7 11.5-.3 24.3-9.3 8.5-9.5 8.6-14.5 8.5-2.7 0-9.7-.8-15.5-1.7l-10.5-1.7-23.3-24.2c-21.4-22.2-37.8-37.9-35.8-34.3.5.8-.1.5-1.3-.8-1.2-1.2-2.7-2.2-3.3-2.2-2.4 0-17.9-11.3-26.3-19.3-8.9-8.3-9-8.4-11.5-6.8-2.3 1.5-2.4 1.5-1.2-.1.7-.9.9-1.9.4-2.2-.9-.5-9.2 7.6-9.2 8.9 0 .3 1.2-.2 2.8-1.2 2.6-1.6 2.6-1.5-.5 1.8l-3.3 3.5-.2 12.4c-.1 9.4-.3 11-.7 6.5-1.1-11.6-2.1-2.5-2.1 19.9 0 12.3-.3 25-.6 28.4l-.7 6.1-5.1.5c-5.2.6-18.3 1.4-71.6 4.2-21.8 1.1-31.4 1.3-33.5.5-1.6-.6-5.7-1-9.1-.9-3.3 0-6.9-.4-8-1-2-1.1-5.6-9.8-12.1-29.7l-2.6-8-19.2-19c-18.5-18.4-29.7-27.9-38-32.5-3.9-2.1-3.9-2.1-1.3-.1 1.4 1.2 3.7 3.1 5 4.2 2 1.8 1.8 1.8-1.7-.3-2.2-1.2-6.5-3.6-9.6-5.3-3.1-1.6-5.4-3.5-5.2-4.2.4-1.2-4.8-4.3-9.7-5.8-2.2-.7-2.3-.6-1.1.9 1.7 2 .4 2-4.2.1-2.7-1.1-3.5-1.9-3-3.2.5-1.4.1-1.5-3-1-4.8.7-7.7-.1-7.7-2.4 0-1.5-.8-1.8-4.2-1.8-7.4.1-16.2-1.3-18-2.8-1.3-1.2-2.1-1.2-3.8-.3-1.6.9-9.5.8-32.4-.1l-30.2-1.3-30.1 5.7-30 5.7-16.9 8.1c-9.3 4.4-18.4 9.2-20.3 10.7-1.9 1.4-4.4 2.6-5.5 2.7-1.2.1-8 6.6-17.3 16.6l-15.2 16.4-.1 15.5v15.4l6.3 6.5c3.4 3.6 5.2 5.7 4 4.7-1.3-1.1-2.3-1.5-2.3-.9 0 .5 3.4 4.2 7.5 8.2 4.1 4 7.5 7.6 7.5 8 0 1.1 16.2 9.8 25 13.4 12.9 5.3 27.6 9.6 37 10.8 4.7.6 32.6 1.4 62 1.8 29.4.5 62.4 1.2 73.2 1.6l19.7.8 1-2.7c1-2.4 1.5-2.6 6.6-2.6 4 0 6 .5 7.3 1.8 1.6 1.6 4.2 2 16.3 2.6 19.3.9 33.8 2.3 42.9 4.1 4.1.8 10.2 1.7 13.5 2.1 11.6 1.3 43.3 12.2 60.4 20.8 3.7 1.9 9.5 4.6 13 6 4.1 1.7 8.9 4.9 14 9.3 4.2 3.7 7.8 6.8 8 7 .6.4-.8 2.1-22 28.5-10.7 13.4-24.4 30.8-30.4 38.8-13.3 17.7-20.9 25.5-26.5 27-5.2 1.4-6.6.6-4.5-2.7l1.7-2.5-3.1.7c-1.6.3-3.9.1-5-.5-1.5-.8-2.7-.8-4.2 0s-2.4.8-3.3 0c-2.4-1.9-12.8-4.1-16-3.3-1.7.4-3.5.5-4.1.4-.5-.2-4.5-.7-8.9-1.1-4.8-.4-8.1-1.2-8.7-2.1-.6-1.1-11.5-1.4-59.6-1.9-38.3-.3-53.6-.7-43.8-1.1 8.6-.4 1.4-.5-17-.3-17.6.1-36.9-.2-43-.7-6-.4-16.6-1.3-23.4-1.9-8.3-.7-12.8-.7-13.6 0-.7.6-6.6.9-13.6.9-11.4-.2-12.2-.3-9.4-1.6 2.9-1.3 2.7-1.3-3.4-1-3.6.2-8-.2-10-.9s-6.6-1.3-10.3-1.4c-3.7 0-7-.4-7.3-1-.3-.5-4.2-.9-8.8-.8-9.5.3-12.9-.6-12-2.9.6-1.4-.2-1.6-6.3-1.1-8.3.6-12-.2-11.6-2.5.3-1.5-.7-1.7-7.9-1.5-7.5.2-8.3.1-9.7-2-1.4-2.2-4.6-3-5.6-1.4-.6 1.1-8.2.5-10.3-.7-1-.6-1.2-1.1-.5-1.1.6 0 1.2-.5 1.2-1 0-.6-2.1-1-4.7-1-4.4 0-4.6.1-2.7 1.6 1.5 1.2 1.5 1.4.3 1.1-1-.3-4.5-1.1-7.8-1.8-3.4-.6-6.4-1.6-6.7-2.1-.4-.6.2-.7 1.5-.3 2.5.8 6.4-.3 5.6-1.5-.7-1.2-11.3-1.1-12.1.1-.3.6.3 1.3 1.5 1.6 1.1.3 2.3 1.3 2.6 2.3.3.9 1.4 2.5 2.5 3.5s2 2.7 2 3.8c0 1.3 4.3 6.2 11.1 13 7.2 7.1 10.7 11.2 9.9 11.7-.7.4 1.5 3.5 6.5 8.8 4.3 4.5 8.1 8.2 8.5 8.2 1 0 13.1 12.5 14.4 14.8.7 1.4.5 1.3-1.2-.2-1.2-1.1-2.5-1.6-2.9-1.3-.6.7 18.2 19.7 19.6 19.7.4 0 1.7-1.8 2.9-3.9 2.2-3.9 3.9-5.1 7.1-5.1 2.6 0 17.4-7.4 20.6-10.4 3.8-3.5 9.9-5.4 12-3.6 1.3 1.1 1.8 1 2.9-.5 1.1-1.6 3.4-1.9 19.3-2.3 22.3-.6 37.3.4 37.3 2.4 0 1.6 1.2 1.8 2.6.4.7-.7 2.3-.6 5 .3l3.9 1.4.3 53.9c.2 48.5.4 54 1.8 55.1 1.5 1.1 1.6 3.1 1.1 16.5-.7 19.4-2.6 26.8-6.2 23.8-1.6-1.3-2-.4-.9 2.4.3.9 1.3 1.6 2.1 1.6s1.1-.5.7-1.2c-.4-.7-.3-.8.4-.4.9.5 1.2 10.4 1.2 36.2 0 19.5-.3 35.4-.6 35.4-.4 0-3.9-2.8-7.8-6.3s-7.9-6.6-8.8-7c-1-.3-2.6-2-3.6-3.6-1-1.7-6.2-7.6-11.5-13.2-5.3-5.5-9.7-10.7-9.7-11.5 0-.7-5.9-7.5-13.1-15.1-7.2-7.6-13.6-14.9-14.2-16.3-.6-1.4-4.3-5.6-8-9.4-3.8-3.8-7.5-8.4-8.3-10.2-.8-1.8-5.3-7.1-10-11.8-6.2-6.1-8.5-9-8-10.2.4-1.1.2-1.5-.8-1.1-1.3.5-4.3-2.1-6.1-5.3-.8-1.3-.7-1.3 1.1 0 1 .8.1-.5-2.1-2.8-2.1-2.3-4.4-4.2-5.1-4.2-1.4 0-2.4-2.2-2.4-5.2 0-2.5-6.7-8.8-8.6-8.1-.8.3-1.5-.1-1.5-.8-.3-2.8-.4-3.5-1.8-5.8-1-1.8-1.5-2-2.1-1-1.2 1.8-4-.6-4-3.4 0-4.4-12-19.1-18.1-22.1-1.5-.7-2.5-2.2-2.7-4-.3-2-6.3-10-20.3-26.6-26.6-31.9-33.8-39.4-37.4-39.5-2.2 0-3.7-1.1-6.3-4.5-1.9-2.5-7.1-8.5-11.6-13.3-4.4-4.9-8.4-9.7-8.8-10.8-.4-1-1.9-2.4-3.2-3.1-1.5-.6-3-2.5-3.6-4.4-.8-2.2-2.5-4.1-5.3-5.7-4.9-2.9-7.7-5.8-8.2-8.4-.1-1-.7-1.7-1.2-1.6-.6.1-3.4-2.5-6.4-5.9-3-3.3-8-8.8-11.1-12.2-3.2-3.4-5.8-6.6-5.8-7.2 0-.7-1.1-1.9-2.5-2.8-1.4-.9-2.5-2.3-2.5-3.2 0-.8-.4-1.3-.9-1-.5.3-2.1-1.1-3.7-3.2-1.5-2-5.7-7-9.4-11-3.6-4.1-6.5-7.7-6.5-8.2 0-.5-1.3-1.8-2.8-3-2-1.6-2.5-2.5-1.7-3 .7-.4.9-1.3.5-2-.6-.9-1-.9-1.7.1-.7 1.1-1.2.9-2.6-1-.9-1.3-2.6-3.3-3.8-4.5-1.1-1.1-5.7-6.4-10-11.6-4.4-5.2-9.5-11.1-11.3-13-1.8-1.9-6.7-7.8-10.9-13s-9.9-12-12.7-15c-2.7-3-8.4-9.7-12.4-14.9l-7.5-9.4 17.5-17.1c9.5-9.4 20.6-19.7 24.4-22.7 3.9-3.1 12.8-11.4 20-18.4 7.1-7 17-16.1 22-20.3 4.9-4.2 11.9-10.5 15.5-14.1 10.2-10 27.8-25 35-29.6 3.6-2.4 11-8.8 16.5-14.3l10-10.1L478 106h291.5l11.5 11.5zm147.2 148c-.2 1.4-.8 2.8-1.3 3.1-.5.3-.7-.2-.4-1 .3-.9.7-2.3 1-3.1.7-2.4 1.3-1.7.7 1zM667.6 320c2.6 1.1 4.5 2.3 4.2 2.5-.4.4-10.8-3.2-11.7-4.1-1.2-1.1 3.3-.2 7.5 1.6zm215.4-.6c0 .2-.8 1-1.7 1.7-1.6 1.3-1.7 1.2-.4-.4 1.3-1.6 2.1-2.1 2.1-1.3zm-25 29c0 .2-.8 1-1.7 1.7-1.6 1.3-1.7 1.2-.4-.4 1.3-1.6 2.1-2.1 2.1-1.3zm-26 29.9-4.3 4.2 3.9-4.7c2.1-2.5 4.1-4.4 4.4-4.2.2.3-1.6 2.4-4 4.7zm-17 19.6c0 1.3-7.9 10-10.3 11.3-1.2.6.5-1.9 3.7-5.5 5.9-6.8 6.6-7.4 6.6-5.8zm-51 55.4c0 .2-1 1.2-2.2 2.3l-2.3 1.9 1.9-2.3c1.8-2.1 2.6-2.7 2.6-1.9zm-26 30-4.3 4.2 3.9-4.7c2.1-2.5 4.1-4.4 4.4-4.2.2.3-1.6 2.4-4 4.7zm-21 25c0 .2-1.4 1.6-3.2 3.3l-3.2 2.9 2.5-3.2c2-2.7 3.9-4.1 3.9-3zm-182.4 92.9c6.9 7.1 17.4 19.8 17.4 21 0 .5-.9.3-1.9-.4-1.7-1-2.7-.6-7.4 3.5-3 2.5-7.1 6.7-9.2 9.2-2.1 2.5-4.1 4.5-4.5 4.5-2.3 0-6.7-28.1-5.7-36.6.5-4.5 2.1-7.4 4.1-7.4.6 0 3.9 2.8 7.2 6.2z"/><path d="M664.8 149.8c1.6 1.1-1.8 1.6-22.8 3.3-14.9 1.2-19.6 2.6-23.3 6.7-1.1 1.2-1.6 2.6-1.2 3.2.4.6 3.9 3.5 7.9 6.4 3.9 3 8 6.3 9 7.5 1.1 1.1 2.6 2.1 3.5 2.1.9 0 3.1 1.9 4.9 4.2 3.6 4.7 4.3 7.1 1.2 4.3-1.1-1-2-1.6-2-1.3 0 1.9 16.7 27.4 20.4 31.3l4.6 4.7 4.5-3.7c3.4-2.7 4.5-4.3 4.4-6.3 0-2.4-.1-2.5-.9-.7-.6 1.4-.9.5-.9-3.5s.3-4.9.9-3.5c.5 1.2.8-2.7.8-10.5-.1-9.4-.3-11.1-.8-7-.6 4.5-.7 3.7-.8-5 0-6.7.3-9.8.8-8.5.6 1.4.9 0 .9-4.6.1-6.4-.1-6.8-4.6-12.9-2.7-3.5-5.5-6.5-6.3-6.8-1.2-.3-1.2-.2-.2.6zM288 236.4c0 3 .5 5.8 1 6.1.6.4 1-1.7 1-5.4 0-3.4-.4-6.1-1-6.1-.5 0-1 2.4-1 5.4zm-135 87.4c0 3.3 1.6 4.3 2.7 1.6.3-.8-.2-2.3-1.1-3.2-1.5-1.5-1.6-1.4-1.6 1.6zm24 99.9c0 .6.8 1.7 1.8 2.4 1.6 1.3 1.6 1.3.2-.6-.8-1.1-1.6-2.2-1.7-2.4-.2-.2-.3 0-.3.6zm195.2 147c.2 1 1 1.8 1.8 1.8s1.6-.8 1.8-1.8c.2-1.2-.3-1.7-1.8-1.7s-2 .5-1.8 1.7zm553.1-118.8c-1.5 2.2-3.3 4-4 4.1-1.5 0-5.6 6.7-4.8 7.9.3.6-2.6 4.3-6.6 8.3-4.1 4.2-7.2 8.3-7.4 9.7-.1 1.4-2.2 4-4.9 6.3-2.6 2.2-5.5 5.7-6.6 7.8-1 2.1-2.5 4-3.3 4.3-.8.3-2.8 3.5-4.7 7.1-1.8 3.6-3.8 6.6-4.6 6.6-1.6 0-6.4 6.1-6.4 8.2 0 2-11.7 17.2-21.2 27.6-7.6 8.2-15.3 18.6-15.3 20.6-.1 2.1-2.6 5.6-4 5.6-.7 0-2.8 1.8-4.5 4-5.8 7.3-6 6.9-8.5-19-.8-8.5-2.6-33.5-4-55.5s-2.9-43.4-3.3-47.5l-.7-7.5-2.6 2.7c-1.4 1.5-4.3 3.8-6.5 5-5 2.9-12.4 10.9-12.4 13.4 0 1.1-2.5 4.3-5.5 7.2-3 2.9-5.5 6.1-5.5 7 0 2.3-5.9 8.6-9.9 10.7-3.1 1.5-3.2 1.8-1.6 3.4 1.5 1.7 1.3 2.1-2.4 6-2.2 2.3-6.5 7.9-9.5 12.4-2.9 4.5-8.6 11.6-12.5 15.7-3.9 4.1-7.1 8.3-7.1 9.3s-2.5 4.7-5.5 8.2c-3 3.6-5.5 7.1-5.5 7.9 0 1.2-2.6 3.8-12.2 11.9-1.8 1.5-2.5 2.4-1.5 2.1 3.1-1.1 1.9 2.1-2.8 7-2.5 2.7-4.5 5.4-4.5 6.1 0 .7-2.5 4-5.5 7.4-3 3.4-5.5 6.8-5.5 7.5 0 .8-3.8 5.4-8.4 10.2-6.9 7.2-8.3 9.2-7.5 10.6.7 1.3.6 1.8-.4 1.8-1.6 0-2 5.1-3.7 49-.6 14.6-1.5 28.7-2 31.5-.5 2.7-.9 18.9-.9 35.8 0 17-.4 31.3-.7 31.9-.5.8.3.9 2.6.4 3.6-.7 8.9-5.9 9-8.8 0-.9.9-1.9 1.9-2.3 1.1-.3 2.5-1.2 3.2-2.1 1-1.2.9-1.3-.7-.7-1.7.6-1.8.5-.4-1.3.8-1 2.5-3.3 3.7-4.9 3.8-4.9 5.4-6.4 6.7-5.9 1.4.6 3.9-4.3 3-5.8-.7-1.1 8.4-10.8 10.2-10.8 1.8 0 8.7-8.9 8.1-10.5-.8-2 4.9-9.5 7.2-9.5 2.2 0 8.5-7.5 7.6-9-1-1.6 3-7.3 6.4-9.3 1.7-1 2.8-2.3 2.5-3-.2-.7 1.6-3.6 4.1-6.6 2.5-2.9 4.5-5.6 4.5-6 0-.4 1.4-1.5 3-2.5 1.7-.9 2.8-2.1 2.5-2.6-.6-.9 7-12.9 9-14.2.5-.4 1.9-.5 3-.2 1.5.4 2.9-.5 5.3-3.5 3.7-4.6 4.2-6.3 1-3.4-4 3.5-5.2 3.7-2.7.4 1.2-1.7 4.4-4.9 7.1-7.1 3.1-2.6 5.1-5.3 5.7-7.6.6-2.1 3.1-5.7 6-8.6 2.8-2.8 5.1-5.9 5.1-6.9 0-2.3 3-1.4 3 1 .1 2.2 7-5.6 7-7.9 0-.9 1.2-2.7 2.6-4.1 1.4-1.3 3.2-3.6 4-5.2.8-1.5 2-2.7 2.6-2.7.7 0 2.4-1.2 4-2.7 1.5-1.4 3-2.4 3.3-2.2 2.6 2.7 4.4 270.8 1.8 271.6-5.4 1.8 3.5 2.3 43 2.3 28.9 0 43.7.4 42.7 1-1 .7 2.2 1 10.1 1 9.8 0 11.8-.3 13.1-1.8 1.2-1.4 1.3-4.5.5-20.2-.4-10.2-.6-104.3-.4-209.2.4-159 .3-190.9-.9-191.8-1-.9-1.9-.3-4.1 2.9zm8.2 65.1c0 36 .1 50.8.2 32.7.2-18 .2-47.4 0-65.5-.1-18-.2-3.2-.2 32.8z"/><path d="M754 512.5c-.8.9-.8 1.5-.2 1.5 1.2 0 2.6-1.9 1.9-2.6-.2-.2-1 .2-1.7 1.1zM740.5 531c-.3.5-.1 1 .4 1 .6 0 1.1-.5 1.1-1 0-.6-.2-1-.4-1-.3 0-.8.4-1.1 1zm48 99c-2.1 2.2-3.6 4.2-3.3 4.5.3.3 2.2-1.5 4.2-4 4.6-5.6 4.2-5.8-.9-.5zM411.1 852.1c.1 4.6.4 9.5.9 10.9.4 1.4.5-2.2.2-8-.6-12.8-1.2-14.5-1.1-2.9zm521.7 12.3c-.3 1.4-.2 2.6.3 2.6 1.4 0 2-2 1.1-3.6-.8-1.4-1-1.2-1.4 1z"/></svg>