<svg xmlns="http://www.w3.org/2000/svg" width="50" height="50"><path style="fill:#ffcd00" d="M33.332 0v7.07c1.074 0 2.102.2 3.05.559l5.263-5.266 4.449 1.266-6.328 6.328a8.598 8.598 0 0 1 1.101 9.938L50 29.03V4.738Zm0 38.613v2.828l5.34 5.336L50 50V34.746l-6.398-6.402Zm0-5.715 7.41-7.41-2.324-2.328-5.086 6.395Zm0 0"/><path style="fill:#ffda44" d="m31.918 40.027 1.414 1.414v-2.828Zm-7.266-1.554-7.988 7.988V50l15.566-4.426-.37.106Zm2.848-16.25-6.691 6.691 8.253 8.254 4.27-4.27v-3.343Zm-6.883 1.167-3.238-3.234-.715.715v6.473Zm1.18 12.227-3.844-3.844-1.289 1.286v7.687ZM16.664 9.906v3.82l6.809 6.81 1.793-1.794c-.368-.969-.559-2-.559-3.043 0-4.758 3.867-8.629 8.625-8.629V0L19.297 3.992l4.59-1.304Zm0 0"/><path style="fill:#ffcd00" d="M16.664 20.871 0 37.535v6.473l16.664-16.664Zm0 12.188L3.473 46.25l5.988 1.7 7.203-7.204Zm-4.766-18.383L0 26.574v5.25l14.523-14.523Zm2.012 34.539-.812-.23L16.664 50v-3.54Zm.844-37.399 1.91 1.91v-3.82ZM0 0v20.86L16.242 4.616Zm0 0"/><path style="fill:#ffe477" d="m40.102 21.043-1.684 2.117 2.324 2.328-11.68 11.68-8.253-8.254 6.691-6.691-.934-1.176a8.73 8.73 0 0 1-1.3-2.305l-1.793 1.793-8.72-8.719 1.911-1.91 7.223-7.219-4.59 1.305-2.633.746-.422-.12L0 20.858v5.715l11.898-11.898 2.625 2.625L0 31.824v5.711l17.379-17.379 3.238 3.235L0 44.008v1.254l3.473.988 13.191-13.191 1.29-1.286 3.843 3.844-5.133 5.13-7.203 7.202 3.637 1.035.812.23 10.742-10.741 7.207 7.207.371-.106 1.102-.312 5.34 1.515-6.754-6.75 11.684-11.683L50 34.746v-5.715l-9.133-9.136a8.27 8.27 0 0 1-.765 1.148Zm-.336-11.086 6.328-6.328-4.45-1.266-5.261 5.266a8.624 8.624 0 0 1 3.383 2.328Zm0 0"/><path style="fill:#cd2a00" d="M33.332 12.48a3.224 3.224 0 0 1 3.219 3.22 3.22 3.22 0 0 1-3.219 3.214v10.64l5.086-6.394 1.684-2.117a8.648 8.648 0 0 0 1.86-5.344 8.598 8.598 0 0 0-2.196-5.742 8.624 8.624 0 0 0-6.434-2.887Zm0 0"/><path style="fill:#d8d7da" d="M36.55 15.7a3.224 3.224 0 0 0-3.218-3.22v6.434a3.22 3.22 0 0 0 3.219-3.215Zm0 0"/><path style="fill:#ff3501" d="M24.707 15.7a8.67 8.67 0 0 0 1.86 5.348l.933 1.175 5.832 7.332v-10.64a3.217 3.217 0 0 1 0-6.435V7.07c-4.758 0-8.625 3.871-8.625 8.63Zm0 0"/><path style="fill:#fff" d="M33.332 12.48a3.217 3.217 0 0 0 0 6.434Zm0 0"/></svg>