<svg xmlns="http://www.w3.org/2000/svg" width="48" height="48"><path style="fill:#00678c" d="M44.215 37.39c-2.613-.074-4.637.196-6.336.907-.488.2-1.274.2-1.336.812.262.258.293.68.52 1.04.394.648 1.078 1.523 1.699 1.976l2.09 1.492c1.273.781 2.707 1.235 3.949 2.012.719.457 1.437 1.039 2.156 1.527.363.258.586.68 1.043.844v-.098c-.227-.293-.293-.715-.523-1.039l-.98-.941c-.946-1.266-2.122-2.367-3.395-3.277-1.043-.711-3.329-1.688-3.754-2.887l-.063-.07c.719-.075 1.567-.325 2.254-.52 1.11-.293 2.121-.227 3.262-.52l1.566-.453v-.293c-.586-.582-1.012-1.363-1.629-1.914-1.668-1.425-3.496-2.82-5.39-3.988-1.012-.648-2.317-1.074-3.395-1.625-.39-.191-1.043-.29-1.273-.613-.586-.715-.914-1.657-1.336-2.5l-2.68-5.645c-.586-1.265-.945-2.531-1.664-3.699-3.363-5.516-7.02-8.855-12.633-12.133-1.207-.683-2.644-.976-4.172-1.332l-2.449-.129c-.52-.226-1.043-.844-1.5-1.136-1.86-1.168-6.66-3.7-8.031-.364-.883 2.11 1.305 4.184 2.047 5.254.558.746 1.273 1.59 1.668 2.434.218.55.293 1.136.52 1.722.523 1.426 1.01 3.016 1.698 4.348.368.68.75 1.395 1.207 2.012.262.363.72.52.817 1.101-.457.649-.488 1.621-.75 2.434-1.176 3.668-.719 8.207.945 10.906.524.813 1.758 2.598 3.43 1.914 1.469-.582 1.14-2.433 1.566-4.054.098-.387.032-.649.227-.907v.07l1.34 2.692c1.011 1.59 2.773 3.246 4.242 4.352.785.582 1.402 1.59 2.383 1.945v-.098h-.063c-.199-.293-.492-.422-.754-.648-.586-.586-1.238-1.301-1.695-1.95-1.371-1.816-2.578-3.828-3.656-5.902-.524-1.008-.98-2.11-1.403-3.113-.199-.39-.199-.977-.523-1.168-.492.71-1.207 1.328-1.57 2.203-.621 1.395-.684 3.117-.91 4.902-.133.032-.075 0-.133.07-1.043-.257-1.403-1.331-1.797-2.238-.977-2.304-1.14-6-.293-8.66.226-.683 1.207-2.824.816-3.472-.195-.618-.847-.973-1.207-1.461-.426-.617-.883-1.395-1.176-2.075-.78-1.82-1.171-3.828-2.023-5.648-.39-.844-1.078-1.719-1.633-2.496-.62-.875-1.305-1.492-1.793-2.531-.164-.364-.394-.942-.133-1.328.067-.262.196-.368.457-.422.426-.364 1.633.097 2.059.289 1.207.488 2.219.941 3.23 1.62.457.325.946.942 1.536 1.106h.683c1.047.227 2.223.07 3.2.364 1.73.55 3.296 1.363 4.703 2.238 4.273 2.691 7.8 6.523 10.183 11.098.39.746.555 1.425.914 2.207.688 1.59 1.535 3.21 2.219 4.77.687 1.523 1.34 3.081 2.32 4.347.489.68 2.446 1.035 3.328 1.394.653.29 1.664.551 2.254.91 1.11.68 2.22 1.458 3.262 2.204.523.39 2.156 1.199 2.254 1.847ZM10.922 9.196a5.15 5.15 0 0 0-1.336.164v.07h.062c.262.52.72.88 1.047 1.333l.75 1.558.067-.074c.457-.324.683-.844.683-1.621-.195-.227-.226-.453-.39-.68-.196-.324-.621-.488-.883-.746Zm0 0"/></svg>