<svg xmlns="http://www.w3.org/2000/svg" width="48" height="48"><path style="fill-rule:nonzero;fill:#3178c6" d="M4.688 0h38.624A4.686 4.686 0 0 1 48 4.688v38.624A4.686 4.686 0 0 1 43.312 48H4.688A4.686 4.686 0 0 1 0 43.312V4.688A4.686 4.686 0 0 1 4.688 0Zm0 0"/><path style="fill-rule:evenodd;fill:#fff" d="M29.719 38.156v4.688c.758.394 1.687.683 2.718.883 1.032.195 2.157.289 3.282.289s2.156-.102 3.187-.32a8.034 8.034 0 0 0 2.625-1.032c.758-.496 1.407-1.125 1.782-1.969.374-.843.664-1.78.664-3 0-.851-.13-1.593-.383-2.25a4.408 4.408 0 0 0-1.125-1.687 7.433 7.433 0 0 0-1.688-1.313 21.531 21.531 0 0 0-2.25-1.125c-.617-.25-1.125-.496-1.687-.738-.489-.246-.91-.488-1.219-.73a3.321 3.321 0 0 1-.797-.79 1.645 1.645 0 0 1-.281-.937c0-.32.082-.61.254-.871.168-.262.402-.48.703-.668.3-.188.676-.328 1.125-.43a6.632 6.632 0 0 1 1.5-.148c.394 0 .805.027 1.219.086.43.058.87.152 1.312.273.442.121.871.27 1.313.457.41.188.797.406 1.125.649v-4.407c-.715-.273-1.5-.476-2.344-.609-.844-.133-1.781-.195-2.906-.195-1.125 0-2.157.12-3.188.355-1.031.235-1.875.61-2.625 1.125-.762.504-1.312 1.125-1.781 1.969-.442.785-.656 1.687-.656 2.812 0 1.407.402 2.625 1.218 3.563.805 1.031 2.063 1.781 3.657 2.531.644.262 1.218.524 1.78.778a7.947 7.947 0 0 1 1.407.789c.403.27.723.57.938.89.234.317.355.692.355 1.125 0 .297-.074.578-.215.844a1.861 1.861 0 0 1-.668.672 3.77 3.77 0 0 1-1.125.453c-.437.102-.937.156-1.593.156a8.513 8.513 0 0 1-3-.531 8.97 8.97 0 0 1-2.813-1.594Zm-7.875-11.531h6v-3.844H11.062v3.844h6v17.156h4.782Zm0 0"/></svg>