<svg xmlns="http://www.w3.org/2000/svg" width="43" height="48" viewBox="0 0 43 47"><path style="fill:#99425b" d="M40.238 23.078c0-2.41-1.976-4.363-4.414-4.363-.156 0-.312.008-.465.023l6.063-17.672H15.664l6.055 17.657c-.09-.004-.18-.008-.27-.008-2.437 0-4.41 1.953-4.41 4.363 0 1.95 1.29 3.598 3.07 4.156a19.094 19.094 0 0 1-3.468 4.32c-1.828 1.704-3.922 2.997-6.184 3.794-2.695-1.368-3.965-4.41-2.816-7.078.129-.305.261-.61.386-.915 1.953-.449 3.407-2.18 3.407-4.246 0-2.41-1.977-4.363-4.414-4.363-2.438 0-4.41 1.953-4.41 4.363a4.34 4.34 0 0 0 1.878 3.57c-1.093 2.462-2.699 5.036-3.199 8.016-.598 3.575 0 7.367 3.125 9.512 7.281 4.988 15.188-3.094 23.52-5.125 3.02-.738 6.336-.617 8.996-2.14 1.996-1.145 3.316-3.044 3.687-5.172.371-2.102-.168-4.196-1.406-5.895a4.327 4.327 0 0 0 1.027-2.797"/><path style="fill:#fff" d="M39.555 31.586c-.325 1.852-1.477 3.465-3.164 4.434-1.575.898-3.461 1.167-5.457 1.453-1.07.152-2.18.308-3.258.574-2.86.695-5.625 2.055-8.301 3.371-5.36 2.629-9.984 4.902-14.348 1.914-3.191-2.191-3.047-6.242-2.672-8.46.344-2.06 1.278-3.954 2.18-5.786.152-.309.305-.621.457-.934.453.18.93.297 1.418.352-.918 2.996.524 6.254 3.555 7.793l.414.21.441-.155c2.395-.844 4.602-2.196 6.559-4.024a20.306 20.306 0 0 0 3.25-3.883c.27.043.547.063.82.063 2.781 0 5.086-2.059 5.442-4.711a47.32 47.32 0 0 1 3.492 0c.355 2.652 2.66 4.71 5.441 4.71a5.506 5.506 0 0 0 3.133-.972 6.57 6.57 0 0 1 .598 4.05ZM7.02 19.813c1.84 0 3.335 1.48 3.335 3.296a3.25 3.25 0 0 1-.527 1.774 3.345 3.345 0 0 1-2.808 1.523c-.41 0-.801-.074-1.165-.207a3.358 3.358 0 0 1-1.73-1.457 3.237 3.237 0 0 1-.438-1.633c0-1.816 1.497-3.297 3.333-3.297Zm11.097 3.265c0-1.652 1.235-3.023 2.84-3.262a3.337 3.337 0 0 1 3.125 1.242 3.26 3.26 0 0 1 .613 2.785 3.34 3.34 0 0 1-3.246 2.532c-.64 0-1.27-.184-1.804-.527a3.291 3.291 0 0 1-1.528-2.77Zm13.918-3.922a5.433 5.433 0 0 0-1.512 2.512 50.645 50.645 0 0 0-3.773 0 5.42 5.42 0 0 0-1.652-2.64l3.449-6.9ZM17.168 2.133h22.75L34.547 17.8a5.683 5.683 0 0 0-.684.207L28.56 7.3l-5.325 10.644a5.617 5.617 0 0 0-.71-.191ZM39.16 23.078c0 .332-.05.649-.14.953a3.346 3.346 0 0 1-3.195 2.344 3.328 3.328 0 0 1-3.22-2.441 3.16 3.16 0 0 1-.117-.856 3.242 3.242 0 0 1 .575-1.844 3.347 3.347 0 0 1 3.074-1.437c1.691.156 3.023 1.566 3.023 3.281Zm2.156 0c0-2.648-1.933-4.86-4.476-5.332L42.926 0H14.164l6.094 17.781c-2.457.54-4.297 2.707-4.297 5.297a5.413 5.413 0 0 0 2.594 4.61 18.278 18.278 0 0 1-2.653 3.09c-1.613 1.507-3.414 2.648-5.351 3.398-1.953-1.211-2.778-3.5-1.922-5.492l.07-.157.125-.293c2.145-.738 3.688-2.754 3.688-5.125 0-2.992-2.465-5.43-5.492-5.43-3.028 0-5.489 2.438-5.489 5.43 0 1.512.63 2.88 1.637 3.864-.188.394-.379.789-.574 1.183C1.672 30.031.625 32.16.227 34.52-.56 39.215.71 42.965 3.8 45.082c1.875 1.285 3.781 1.79 5.699 1.79 3.61 0 7.262-1.794 10.832-3.548 2.574-1.261 5.23-2.566 7.86-3.207.976-.238 1.984-.383 3.046-.535 2.114-.3 4.297-.613 6.23-1.719 2.243-1.285 3.778-3.441 4.212-5.91.375-2.121-.075-4.246-1.168-6.05a5.35 5.35 0 0 0 .804-2.825Zm0 0"/></svg>