<svg xmlns="http://www.w3.org/2000/svg" xmlns:xlink="http://www.w3.org/1999/xlink" width="48" height="48"><defs><linearGradient id="h" gradientUnits="userSpaceOnUse" x1=".494" y1=".495" x2=".503" y2=".504" gradientTransform="matrix(13.3164 0 0 8.55078 26.348 33.45)"><stop offset="0" style="stop-color:#000;stop-opacity:1"/><stop offset="1" style="stop-color:#000;stop-opacity:0"/></linearGradient><linearGradient id="i" gradientUnits="userSpaceOnUse" x1=".501" y1=".499" x2=".499" y2=".501" gradientTransform="matrix(18.05469 0 0 6.89453 8.305 35.105)"><stop offset="0" style="stop-color:#000;stop-opacity:1"/><stop offset="1" style="stop-color:#000;stop-opacity:0"/></linearGradient><linearGradient id="j" gradientUnits="userSpaceOnUse" x1=".815" y1=".465" x2=".937" y2=".502" gradientTransform="matrix(10.4414 0 0 7.52734 11.98 14.2)"><stop offset="0" style="stop-color:#c37a44;stop-opacity:1"/><stop offset=".444" style="stop-color:#bb713d;stop-opacity:1"/><stop offset=".641" style="stop-color:#a05728;stop-opacity:1"/><stop offset="1" style="stop-color:#964e23;stop-opacity:1"/></linearGradient><linearGradient id="k" gradientUnits="userSpaceOnUse" x1=".635" y1=".613" x2=".414" y2=".434" gradientTransform="matrix(20.89453 0 0 12.0664 1.445 5.91)"><stop offset="0" style="stop-color:#e9b880;stop-opacity:1"/><stop offset="1" style="stop-color:#e4af76;stop-opacity:1"/></linearGradient><linearGradient id="l" gradientUnits="userSpaceOnUse" x1=".509" y1=".511" x2=".492" y2=".493" gradientTransform="matrix(11.32422 0 0 4.3711 11.055 13.797)"><stop offset="0" style="stop-color:#c37a45;stop-opacity:0"/><stop offset=".133" style="stop-color:#c37a45;stop-opacity:1"/><stop offset=".294" style="stop-color:#d08d55;stop-opacity:1"/><stop offset=".502" style="stop-color:#dea167;stop-opacity:1"/><stop offset=".697" style="stop-color:#e8af73;stop-opacity:1"/><stop offset=".863" style="stop-color:#ecb477;stop-opacity:1"/><stop offset="1" style="stop-color:#ecb477;stop-opacity:0"/></linearGradient><linearGradient id="m" gradientUnits="userSpaceOnUse" x1=".474" y1=".289" x2=".223" y2=".775" gradientTransform="matrix(12.42969 0 0 10.45313 22.371 14.2)"><stop offset=".088" style="stop-color:#af6938;stop-opacity:1"/><stop offset=".483" style="stop-color:#9a5227;stop-opacity:1"/><stop offset=".779" style="stop-color:#8d4520;stop-opacity:1"/></linearGradient><linearGradient id="n" gradientUnits="userSpaceOnUse" x1=".411" y1=".573" x2=".566" y2=".45" gradientTransform="matrix(22.76953 0 0 10.125 22.438 6.844)"><stop offset=".033" style="stop-color:#e4af76;stop-opacity:1"/><stop offset="1" style="stop-color:#e9b880;stop-opacity:1"/></linearGradient><linearGradient id="o" gradientUnits="userSpaceOnUse" x1=".496" y1=".505" x2=".507" y2=".492" gradientTransform="matrix(13.17969 0 0 3.51953 22.371 13.797)"><stop offset="0" style="stop-color:#af6a38;stop-opacity:0"/><stop offset=".086" style="stop-color:#af6a38;stop-opacity:1"/><stop offset=".198" style="stop-color:#b87542;stop-opacity:1"/><stop offset=".583" style="stop-color:#d59c66;stop-opacity:1"/><stop offset=".777" style="stop-color:#e4af76;stop-opacity:1"/><stop offset=".924" style="stop-color:#e4af76;stop-opacity:0"/></linearGradient><linearGradient id="c" gradientUnits="userSpaceOnUse" x1=".082" y1=".5" x2=".932" y2=".5" gradientTransform="matrix(.64063 0 0 7.65234 22.059 14.25)"><stop offset="0" style="stop-color:#743f1a;stop-opacity:0"/><stop offset=".493" style="stop-color:#743f1a;stop-opacity:.886275"/><stop offset=".5" style="stop-color:#743f1a;stop-opacity:.901961"/><stop offset=".53" style="stop-color:#743f1a;stop-opacity:.847059"/><stop offset="1" style="stop-color:#743f1a;stop-opacity:0"/></linearGradient><linearGradient id="e" gradientUnits="userSpaceOnUse" x1=".499" y1=".501" x2=".5" y2=".5" gradientTransform="matrix(18.1914 0 0 6.8711 8.2 35.012)"><stop offset="0" style="stop-color:#322214;stop-opacity:1"/><stop offset=".24" style="stop-color:#322314;stop-opacity:.988235"/><stop offset="1" style="stop-color:#322214;stop-opacity:0"/></linearGradient><linearGradient id="t" gradientUnits="userSpaceOnUse" x1=".514" y1=".482" x2=".487" y2=".516" gradientTransform="matrix(26.51953 0 0 9.9336 0 14.918)"><stop offset=".048" style="stop-color:#c69866;stop-opacity:1"/><stop offset=".416" style="stop-color:#ba8c5e;stop-opacity:1"/><stop offset=".814" style="stop-color:#b5875b;stop-opacity:1"/></linearGradient><linearGradient id="u" gradientUnits="userSpaceOnUse" x1=".63" y1=".468" x2=".25" y2=".089" gradientTransform="matrix(10.41797 0 0 9.34766 7.61 17.023)"><stop offset="0" style="stop-color:#845f35;stop-opacity:1"/><stop offset=".431" style="stop-color:#91673c;stop-opacity:1"/><stop offset=".441" style="stop-color:#976a40;stop-opacity:1"/><stop offset=".874" style="stop-color:#986b40;stop-opacity:1"/><stop offset="1" style="stop-color:#ab8157;stop-opacity:1"/></linearGradient><linearGradient id="g" gradientUnits="userSpaceOnUse" x1=".5" y1=".5" x2=".501" y2=".501" gradientTransform="matrix(13.35156 0 0 8.53906 26.39 33.344)"><stop offset="0" style="stop-color:#322214;stop-opacity:0"/><stop offset="1" style="stop-color:#322214;stop-opacity:1"/></linearGradient><linearGradient id="x" gradientUnits="userSpaceOnUse" x1=".457" y1=".626" x2=".505" y2=".335" gradientTransform="matrix(10.0586 0 0 12 32.813 13.707)"><stop offset="0" style="stop-color:#a9794b;stop-opacity:1"/><stop offset=".386" style="stop-color:#ae7f53;stop-opacity:1"/><stop offset=".456" style="stop-color:#ac7d50;stop-opacity:1"/><stop offset=".624" style="stop-color:#a9794b;stop-opacity:1"/><stop offset="1" style="stop-color:#b2875d;stop-opacity:1"/></linearGradient><clipPath id="b"><path d="M0 0h48v48H0z"/></clipPath><clipPath id="d"><path d="M0 0h48v48H0z"/></clipPath><clipPath id="f"><path d="M0 0h48v48H0z"/></clipPath><mask id="q"><g filter="url(#a)"><path style="fill:#000;fill-opacity:.74902;stroke:none" d="M0 0h48v48H0z"/></g></mask><mask id="s"><g filter="url(#a)"><path style="fill:#000;fill-opacity:.541176;stroke:none" d="M0 0h48v48H0z"/></g></mask><mask id="w"><g filter="url(#a)"><path style="fill:#000;fill-opacity:.541176;stroke:none" d="M0 0h48v48H0z"/></g></mask><g id="p" clip-path="url(#b)"><path style="fill:url(#c)" d="M22.7 14.309v7.593l-.278-.175-.363-.239v-7.136l.28-.102h.099Zm0 0"/></g><g id="r" clip-path="url(#d)"><path style="fill:url(#e)" d="M26.39 41.832v.05a.164.164 0 0 1-.105-.007L8.312 35.172c-.07-.031-.101-.09-.113-.16Zm0 0"/></g><g id="v" clip-path="url(#f)"><path style="fill:url(#g)" d="M39.742 33.344v.008c-.012.093-.058.125-.152.187l-13.14 8.32a.184.184 0 0 1-.06.024v-.047Zm0 0"/></g><filter id="a" filterUnits="objectBoundingBox" x="0%" y="0%" width="100%" height="100%"><feColorMatrix in="SourceGraphic" values="0 0 0 0 1 0 0 0 0 1 0 0 0 0 1 0 0 0 1 0"/></filter></defs><path style="fill:url(#h)" d="M26.348 41.781 39.52 33.45a.107.107 0 0 1 .144.035.103.103 0 0 1-.035.141L26.414 41.98a.093.093 0 0 1-.055.02Zm0 0"/><path style="fill:url(#i)" d="M26.36 42c-.012 0-.024-.004-.036-.008l-17.96-6.691a.102.102 0 0 1-.06-.133.103.103 0 0 1 .133-.063l17.915 6.676Zm0 0"/><path style="fill:#e8b67f" d="m45.207 9.996-2.074 3.434-8.332 3.539-.461.199-7.488 7a.969.969 0 0 0-.258.465c-.008.039-.043.023-.074.02-.032 0-.079.011-.082-.028a.498.498 0 0 0-.262-.469l-3.754-2.43-2.735-1.773-7.707-1.976-6.449-1.653-4.086-6.347.063-.07.004-.009 15.336-3.984c.023-.008.027-.004.035.008l5.23 7.836.106.156c.113.164.12.266.12.336h.099v-.043c0-.004.003-.008.003-.016 0-.007 0-.015.004-.023 0-.008 0-.016.004-.023a.68.68 0 0 1 .02-.086c.004-.012.008-.02.008-.028.007-.031.02-.062.03-.094.005-.011.009-.023.016-.035a.48.48 0 0 1 .047-.101.337.337 0 0 1 .043-.074l4.715-6.86c.012-.015.02-.023.043-.02L45.176 9.91Zm0 0"/><path style="fill:url(#j)" d="m22.422 21.727-2.735-1.774-7.707-1.976 10.36-3.727.031-.05v.05Zm0 0"/><path style="fill:url(#k)" d="m22.34 14.25-10.36 3.727-.933-.243L5.53 16.32 1.445 9.973l.067-.078L16.848 5.91c.023-.008.027-.004.035.008l5.23 7.836.106.156c.113.168.12.27.12.34Zm0 0"/><path style="fill:url(#l)" d="m22.379 14.648-9.797 3.52-1.527-.39 11.066-3.981.102.156c.113.164.125.266.125.336h.027Zm0 0"/><path style="fill:#d2a679" d="m5.672 16.355-.14-.035-4.083-6.343.059-.075Zm0 0"/><path style="fill:url(#m)" d="m34.8 16.969-.46.199-7.488 7a.969.969 0 0 0-.258.465c-.008.039-.043.023-.074.02-.032 0-.079.011-.082-.028a.498.498 0 0 0-.262-.469l-3.754-2.43-.05-7.472v-.055l.07.055Zm0 0"/><path style="fill:url(#n)" d="m45.207 9.996-2.074 3.434-7.582 3.222-.746.317-12.367-2.719c-.008-.094.058-.313.132-.45a.265.265 0 0 1 .043-.073l4.715-6.86c.012-.02.02-.023.043-.023L45.176 9.91Zm0 0"/><path style="fill:url(#o)" d="m35.55 16.652-1.21.512-.156.152-11.813-2.613.055-.453h.012c-.008-.098.058-.313.132-.453Zm0 0"/><use xlink:href="#p" mask="url(#q)"/><path style="fill:#bf9064" d="M26.285 41.875 8.312 35.172c-.101-.043-.117-.14-.12-.258 0 0-.774-15.32-.778-15.32 0-.04.047-.063.043-.09-.012-.059-.121-.277-.156-.297L0 15.059l.063-.141 19.625 5.035 6.484 4.203c.242.149.262.317.262.465.003.043.05.027.086.031.03 0 .066.02.074-.02a.952.952 0 0 1 .258-.464l7.484-7 13.578-5.773.082.117-7.328 6.437c-.145.145-.207.32-.18.39l-.75 15.013c-.011.093-.058.125-.152.187l-13.14 8.32c-.051.032-.11.043-.16.016Zm0 0"/><path style="fill:#bd8f63" d="m26.52 24.652-.13 17.23a.14.14 0 0 1-.105-.007L8.31 35.172c-.102-.043-.114-.14-.121-.258l-.774-15.32v-.012c0-.004.004-.008.004-.008.004-.004.004-.008.008-.012 0-.003.004-.003.004-.007.008-.012.02-.024.023-.032v-.007l18.985 5.113c.007.035.05.02.082.023Zm0 0"/><use xlink:href="#r" mask="url(#s)"/><path style="fill:#322214" d="m18.262 31.383 6.96 2.273-.015 6.79-6.832-2.508Zm3.488 4.558.02 3.145 3.37 1.238v-3.207Zm.996 1.016.684 1.082.664-.582.117.133-.688.601.692 1.098-.102.063-.68-1.082-.663.582-.118-.133.688-.598-.692-1.101Zm2.008 1.219v.312l.176.059v.348l-.176-.07v.28l-.39-.593Zm-.602-.375.137.043v1.234l-.137-.047Zm-5.75-3.024.047 3.094 3.223 1.18-.02-3.137Zm5.035 3.688.352.57-.703-.254Zm.543-.52v.805l-.367-.516Zm-1.394-.718.133.046v1.23l-.133-.046Zm.305.332.347.539-.347.265Zm-2.914-1.493.132.043v.078c.395.16.79.555.977 1.176-.125-.21-.234-.25-.426-.183-.07-.149-.281-.227-.406-.149a.359.359 0 0 0-.14-.144l.007 1.175c0 .11-.078.208-.262.168-.168-.039-.238-.167-.218-.39l.093.015c0 .149.012.23.121.258.098.024.141-.011.141-.101l-.012-1.168a.18.18 0 0 0-.136.043c-.043-.11-.25-.258-.403-.149-.11-.172-.312-.238-.43-.11.15-.444.544-.597.962-.487Zm2.132 1.149.38.597-.376.317.008-.297-.183-.043v-.34l.171.063Zm.965.129.715.258-.36.312Zm-1.328-4.727.008 3.207 3.387 1.18V33.73Zm.633 2.77 2.023.691v.406l-2.023-.699Zm-1.754.765h.008c.015.012.015.153-.028.188a.09.09 0 0 1-.082-.012.086.086 0 0 1-.027-.094c.012-.047.121-.093.137-.082Zm.188-.324.007.004c.016.012.016.152-.027.188a.09.09 0 0 1-.082-.012.086.086 0 0 1-.027-.094c.011-.047.12-.094.136-.082Zm-.524-.012.008.004c.015.012.015.153-.031.184-.02.012-.051.012-.078-.008-.028-.023-.043-.05-.032-.098.012-.043.125-.093.14-.078Zm-.531-.078.008.004c.015.012.015.153-.032.184-.02.011-.05.011-.078-.008-.027-.02-.039-.05-.031-.094.012-.047.125-.094.14-.082Zm4.183-2.105.493.972-.336-.117v1.407l-.336-.118v-1.394l-.332-.106ZM18.336 31.5l.059 3.164 3.261 1.121-.027-3.203Zm4.496 1.766.492.968-.336-.113v1.402l-.336-.113.004-1.394-.336-.11Zm-3.766-1.13.266.09.125.446-.14-.008.398.957-.207-.789h.117l-.117-.55 1.375.452v.758a.531.531 0 0 1-.75.469v.758l.629.406-1.524-.531.614.031-.012-.754c-.434-.129-.75-.652-.75-.969Zm0 0"/><path style="fill:url(#t)" d="M26.52 24.652c-.075 0-.133.102-.133.192l-.02.008-18.953-5.258c-.004-.035.04-.059.043-.082v-.004c-.012-.059-.125-.278-.16-.301L0 15.059l.063-.141 19.62 5.035h.005l6.484 4.2c.242.152.262.316.262.468 0 0 0 .004.003.008.008.035.051.02.083.023Zm0 0"/><path style="fill:#cd9c6b" d="M40.668 17.95c-.14.14-.207.316-.18.386L26.684 24.87l-.028-.023c-.004-.11-.07-.184-.125-.196.028.004.055.016.063-.02.004-.023.008-.05.02-.077a1.083 1.083 0 0 1 .206-.352c.012-.012.024-.027.035-.035l7.485-7.004 13.578-5.77.082.114Zm0 0"/><path style="fill:url(#u)" d="M18 26.371c.02.004.027.004.027-.012l-.07-3.812c-.008-.129-.039-.387-.195-.488l-6.91-4.2-3.243-.836 7.028 4.2c.175.113.191.332.199.492l.101 3.71c0 .016 0 .02.016.028Zm0 0"/><path style="fill:#d4a271" d="M26.52 24.652c-.079 0-.133.106-.133.2-.004.007-.016.003-.02 0-.012-.207-.097-.434-.207-.516l-6.539-4.215.063-.168h.003l6.485 4.2c.242.152.262.316.262.468 0 0 0 .004.003.008.008.035.051.02.083.023Zm0 0"/><path style="fill:#deb37e" d="m19.684 19.953-.063.168L0 15.06l.063-.141Zm0 0"/><path style="fill:#dbad77" d="m40.492 18.336-.75 15.016c-.012.093-.058.12-.152.187l-13.14 8.316c-.02.016-.04.02-.06.028l.13-17.235c.035.004.066.02.074-.02 0-.003.004-.007.004-.015l13.89-6.293c0 .008 0 .012.004.016Zm0 0"/><use xlink:href="#v" mask="url(#w)"/><path style="fill:#322214" d="m39.496 26.813-.3 6.113-4.368 2.719.223-6.364Zm-2.336 4.425-2.172 1.274-.101 3.011 2.16-1.343Zm-1.039 1.29-.004.1c.262-.128.504-.038.61.392-.07-.098-.2-.06-.29.144-.039-.086-.238-.016-.269.16-.016-.031-.043-.039-.078-.035l-.047 1.16c-.004.098-.008.207-.133.281-.058.028-.215.047-.191-.167l.07-.055c-.004.137.031.176.106.133.09-.055.074-.141.078-.223l.039-1.098a.277.277 0 0 0-.114.168c-.023-.07-.238-.027-.265.164-.063-.082-.23 0-.293.207.117-.539.406-.988.695-1.183l.004-.086Zm3.168-2.551-2.066 1.222-.118 2.95 2.047-1.286Zm-.637.992.059.058-.45 1.024.372.511-.059.13-.37-.508-.45 1.011-.059-.054.453-1.032-.386-.527.07-.125.375.52Zm-1.261 1.176.234.285-.25.539v-.239l-.102.063.004-.305.106-.062Zm.406-.372-.05 1.133-.083.055.047-1.125Zm.394.594.204.262-.434.262Zm-2.296.082c.011 0 .003.13-.028.192-.012.023-.031.047-.047.05-.02 0-.027-.02-.015-.066a.55.55 0 0 1 .09-.176Zm1.996-.52.199.247-.235.457Zm-1.426.286a.396.396 0 0 1-.028.191c-.011.024-.03.047-.05.051-.016 0-.024-.02-.012-.066a.55.55 0 0 1 .09-.176Zm.832-4.098-2.192 1.23-.117 3.071 2.18-1.281Zm1.445 3.082-.05 1.13-.075.046.051-1.125Zm-2.484.93c.012 0 .004.129-.028.191-.011.024-.03.047-.046.051-.02 0-.028-.016-.016-.066a.598.598 0 0 1 .09-.176Zm2.293-.602-.031.72-.196-.231Zm.465-.343-.012.277.11-.059-.012.309-.106.059-.004.253-.226-.27Zm-2.407.574c.012 0 .004.129-.027.191-.012.024-.031.047-.05.051-.016 0-.024-.016-.012-.066a.598.598 0 0 1 .09-.176Zm1.836-.434-.234.531-.2-.273ZM36.79 28.77l-.027.773c-.012.262-.223.738-.535.937l-.036.73.418-.089-1.02.59.427-.406.023-.715c-.273.156-.492-.133-.477-.426l.024-.707.184-.102.058.344-.098.078.22.637-.083-.578.074-.09-.058-.453Zm2.66-1.848-2.097 1.176-.133 3.015 2.082-1.246Zm-.547 2.601-.027.36-1.227.726.016-.363Zm-.87-1.546.273.574-.203.113-.063 1.29-.195.112.039-1.289-.2.118Zm.683-.38.265.563-.218.125-.043 1.277-.211.118.066-1.29-.203.118Zm0 0"/><path style="fill:#d7aa77" d="m34.45 17.313-7.423 6.902c-.21.2-.347.5-.343.656-.004.004-.024.012-.032 0 .012-.121-.066-.203-.12-.219.027.004.054.016.062-.02.004-.023.008-.05.015-.077a.443.443 0 0 1 .036-.078 1.02 1.02 0 0 1 .207-.309l7.484-7Zm0 0"/><path style="fill:url(#x)" d="M32.813 25.684c0 .02.011.03.023.023l2.23-1.145c.004 0 .004-.003.008-.011l.121-3.656c.004-.2.117-.399.27-.536l7.406-6.652-2.254.965-7.441 6.742a.853.853 0 0 0-.262.598Zm0 0"/><path style="fill:#f8ce93" d="M34.45 17.313 48 11.508l-.086-.113-13.574 5.77Zm0 0"/></svg>