<svg xmlns="http://www.w3.org/2000/svg" width="54" height="48" viewBox="0 0 55 48"><path style="stroke:none;fill-rule:nonzero;fill:#007ad9;fill-opacity:1" d="M32.293 24c0 2.656-2.148 4.809-4.793 4.809S22.707 26.656 22.707 24s2.148-4.809 4.793-4.809 4.793 2.153 4.793 4.809Zm0 0"/><path style="fill:none;stroke-width:1;stroke-linecap:butt;stroke-linejoin:miter;stroke:#007ad9;stroke-opacity:1;stroke-miterlimit:4" d="M11 0c0-2.32-4.925-4.2-11-4.2S-11-2.32-11 0c0 2.32 4.925 4.2 11 4.2S11 2.32 11 0Zm0 0" transform="matrix(2.33714 0 0 2.34564 27.5 24)"/><path style="fill:none;stroke-width:1;stroke-linecap:butt;stroke-linejoin:miter;stroke:#007ad9;stroke-opacity:1;stroke-miterlimit:4" d="M11 0c0-2.32-4.925-4.2-11-4.2S-11-2.32-11 0c0 2.32 4.925 4.2 11 4.2S11 2.32 11 0Zm0 0" transform="matrix(1.16857 2.03139 -2.02403 1.17282 27.5 24)"/><path style="fill:none;stroke-width:1;stroke-linecap:butt;stroke-linejoin:miter;stroke:#007ad9;stroke-opacity:1;stroke-miterlimit:4" d="M11 0c0-2.32-4.925-4.2-11-4.2S-11-2.32-11 0c0 2.32 4.925 4.2 11 4.2S11 2.32 11 0Zm0 0" transform="matrix(-1.16857 2.03139 -2.02403 -1.17282 27.5 24)"/></svg>