<svg xmlns="http://www.w3.org/2000/svg" width="48" height="48"><path style="fill:#559b00" d="M42.29 11.375 25.753 1.773c-1.043-.593-2.402-.593-3.453 0L5.586 11.375c-1.074.621-1.836 1.781-1.836 3.027v19.18c0 1.242.781 2.406 1.86 3.031l4.413 2.508c2.11 1.04 2.856 1.04 3.817 1.04 3.125 0 4.91-1.891 4.91-5.188V16.039c0-.266-.14-.664-.402-.664h-2.11c-.265 0-.863.398-.863.664v18.934c0 1.46-1.32 2.914-3.793 1.68l-4.562-2.63a.518.518 0 0 1-.27-.441v-19.18c0-.18.207-.363.367-.453l16.66-9.586a.573.573 0 0 1 .54 0l16.456 9.582c.157.094.102.27.102.457v19.18c0 .184.066.36-.086.45l-16.535 9.59a.465.465 0 0 1-.473 0l-4.238-2.532c-.129-.074-.281-.102-.402-.031-1.18.668-1.399.757-2.504 1.14-.274.094-.676.258.152.723l5.55 3.285a3.505 3.505 0 0 0 3.493 0l16.457-9.594c1.074-.629 1.586-1.789 1.586-3.031v-19.18c0-1.246-.512-2.406-1.586-3.027ZM29.214 30.543c-4.395 0-5.363-1.215-5.688-3.402-.039-.235-.238-.516-.476-.516h-2.149c-.265 0-.48.324-.48.586 0 2.8 1.523 6.191 8.793 6.191 5.265 0 8.285-2.043 8.285-5.664 0-3.59-2.426-4.531-7.531-5.207-5.16-.683-5.684-1.027-5.684-2.234 0-1 .442-2.328 4.266-2.328 3.414 0 4.672.734 5.187 3.035a.477.477 0 0 0 .465.371h2.16a.497.497 0 0 0 .352-.148.487.487 0 0 0 .125-.368c-.332-3.964-2.965-5.808-8.293-5.808-4.735 0-7.559 2-7.559 5.351 0 3.637 2.809 4.641 7.356 5.09 5.441.535 5.863 1.328 5.863 2.399 0 1.859-1.492 2.652-4.992 2.652Zm0 0"/></svg>