<svg style="background-color:#192a32" xmlns="http://www.w3.org/2000/svg" xmlns:xlink="http://www.w3.org/1999/xlink" width="48" height="48" viewBox="0 0 48 47"><defs><clipPath id="b"><path d="M0 0h48v47H0z"/></clipPath><clipPath id="c"><path d="M0 0h48v47H0z"/></clipPath><clipPath id="d"><path d="M0 0h48v47H0z"/></clipPath><clipPath id="e"><path d="M0 0h48v47H0z"/></clipPath><clipPath id="f"><path d="M0 0h48v47H0z"/></clipPath><clipPath id="g"><path d="M0 0h48v47H0z"/></clipPath><clipPath id="h"><path d="M0 0h48v47H0z"/></clipPath><clipPath id="i"><path d="M0 0h48v47H0z"/></clipPath><clipPath id="j"><path d="M0 0h48v47H0z"/></clipPath><clipPath id="k"><path d="M0 0h48v47H0z"/></clipPath><clipPath id="l"><path d="M0 0h48v47H0z"/></clipPath><clipPath id="m"><path d="M0 0h48v47H0z"/></clipPath><clipPath id="n"><path d="M0 0h48v47H0z"/></clipPath><clipPath id="o"><path d="M0 0h48v47H0z"/></clipPath><clipPath id="p"><path d="M0 0h48v47H0z"/></clipPath><clipPath id="q"><path d="M0 0h48v47H0z"/></clipPath><clipPath id="r"><path d="M0 0h48v47H0z"/></clipPath><clipPath id="s"><path d="M0 0h48v47H0z"/></clipPath><mask id="u"><g filter="url(#a)"><path style="fill:#000;fill-opacity:.501961;stroke:none" d="M0 0h48v47H0z"/></g></mask><mask id="w"><g filter="url(#a)"><path style="fill:#000;fill-opacity:.501961;stroke:none" d="M0 0h48v47H0z"/></g></mask><mask id="y"><g filter="url(#a)"><path style="fill:#000;fill-opacity:.501961;stroke:none" d="M0 0h48v47H0z"/></g></mask><mask id="A"><g filter="url(#a)"><path style="fill:#000;fill-opacity:.501961;stroke:none" d="M0 0h48v47H0z"/></g></mask><mask id="C"><g filter="url(#a)"><path style="fill:#000;fill-opacity:.501961;stroke:none" d="M0 0h48v47H0z"/></g></mask><mask id="E"><g filter="url(#a)"><path style="fill:#000;fill-opacity:.501961;stroke:none" d="M0 0h48v47H0z"/></g></mask><mask id="G"><g filter="url(#a)"><path style="fill:#000;fill-opacity:.501961;stroke:none" d="M0 0h48v47H0z"/></g></mask><mask id="I"><g filter="url(#a)"><path style="fill:#000;fill-opacity:.501961;stroke:none" d="M0 0h48v47H0z"/></g></mask><mask id="K"><g filter="url(#a)"><path style="fill:#000;fill-opacity:.501961;stroke:none" d="M0 0h48v47H0z"/></g></mask><mask id="M"><g filter="url(#a)"><path style="fill:#000;fill-opacity:.501961;stroke:none" d="M0 0h48v47H0z"/></g></mask><mask id="O"><g filter="url(#a)"><path style="fill:#000;fill-opacity:.501961;stroke:none" d="M0 0h48v47H0z"/></g></mask><mask id="Q"><g filter="url(#a)"><path style="fill:#000;fill-opacity:.501961;stroke:none" d="M0 0h48v47H0z"/></g></mask><mask id="S"><g filter="url(#a)"><path style="fill:#000;fill-opacity:.501961;stroke:none" d="M0 0h48v47H0z"/></g></mask><mask id="U"><g filter="url(#a)"><path style="fill:#000;fill-opacity:.501961;stroke:none" d="M0 0h48v47H0z"/></g></mask><mask id="W"><g filter="url(#a)"><path style="fill:#000;fill-opacity:.501961;stroke:none" d="M0 0h48v47H0z"/></g></mask><mask id="Y"><g filter="url(#a)"><path style="fill:#000;fill-opacity:.501961;stroke:none" d="M0 0h48v47H0z"/></g></mask><mask id="aa"><g filter="url(#a)"><path style="fill:#000;fill-opacity:.501961;stroke:none" d="M0 0h48v47H0z"/></g></mask><mask id="ac"><g filter="url(#a)"><path style="fill:#000;fill-opacity:.501961;stroke:none" d="M0 0h48v47H0z"/></g></mask><g id="t" clip-path="url(#b)"><path style="stroke:none;fill-rule:nonzero;fill:#d0d4d8;fill-opacity:1" d="M30.855 40.285h2.29c.636 0 1.14.492 1.14 1.121a1.12 1.12 0 0 1-1.14 1.117h-2.29a1.12 1.12 0 0 1-1.14-1.117 1.12 1.12 0 0 1 1.14-1.12Zm0 0"/></g><g id="v" clip-path="url(#c)"><path style="stroke:none;fill-rule:nonzero;fill:#d0d4d8;fill-opacity:1" d="M17.145 40.285h9.14c.64 0 1.145.492 1.145 1.121 0 .625-.504 1.117-1.145 1.117h-9.14c-.641 0-1.145-.492-1.145-1.117 0-.629.504-1.12 1.145-1.12Zm0 0"/></g><g id="x" clip-path="url(#d)"><path style="stroke:none;fill-rule:nonzero;fill:#d0d4d8;fill-opacity:1" d="M37.715 40.285h9.14c.641 0 1.145.492 1.145 1.121 0 .625-.504 1.117-1.145 1.117h-9.14c-.64 0-1.145-.492-1.145-1.117 0-.629.504-1.12 1.145-1.12Zm0 0"/></g><g id="z" clip-path="url(#e)"><path style="stroke:none;fill-rule:nonzero;fill:#d0d4d8;fill-opacity:1" d="M33.145 0h13.71C47.496 0 48 .492 48 1.117c0 .63-.504 1.121-1.145 1.121h-13.71c-.641 0-1.145-.492-1.145-1.12C32 .491 32.504 0 33.145 0Zm0 0"/></g><g id="B" clip-path="url(#f)"><path style="stroke:none;fill-rule:nonzero;fill:#d0d4d8;fill-opacity:1" d="M33.145 31.332h4.57a1.118 1.118 0 1 1 0 2.238h-4.57c-.641 0-1.145-.492-1.145-1.117 0-.629.504-1.121 1.145-1.121Zm0 0"/></g><g id="D" clip-path="url(#g)"><path style="stroke:none;fill-rule:nonzero;fill:#d0d4d8;fill-opacity:1" d="M42.285 31.332h4.57c.641 0 1.145.492 1.145 1.121 0 .625-.504 1.117-1.145 1.117h-4.57a1.118 1.118 0 1 1 0-2.238Zm0 0"/></g><g id="F" clip-path="url(#h)"><path style="stroke:none;fill-rule:nonzero;fill:#d0d4d8;fill-opacity:1" d="M40 26.855h6.855c.641 0 1.145.493 1.145 1.122 0 .625-.504 1.117-1.145 1.117H40c-.64 0-1.145-.492-1.145-1.117 0-.63.504-1.122 1.145-1.122Zm0 0"/></g><g id="H" clip-path="url(#i)"><path style="stroke:none;fill-rule:nonzero;fill:#d0d4d8;fill-opacity:1" d="M40 4.477h6.855c.641 0 1.145.492 1.145 1.117 0 .629-.504 1.12-1.145 1.12H40c-.64 0-1.145-.491-1.145-1.12 0-.625.504-1.117 1.145-1.117Zm0 0"/></g><g id="J" clip-path="url(#j)"><path style="stroke:none;fill-rule:nonzero;fill:#d0d4d8;fill-opacity:1" d="M42.285 22.383h4.57c.641 0 1.145.492 1.145 1.117s-.504 1.117-1.145 1.117h-4.57c-.64 0-1.14-.492-1.14-1.117s.5-1.117 1.14-1.117Zm0 0"/></g><g id="L" clip-path="url(#k)"><path style="stroke:none;fill-rule:nonzero;fill:#d0d4d8;fill-opacity:1" d="M42.285 8.953h4.57c.641 0 1.145.492 1.145 1.117 0 .63-.504 1.121-1.145 1.121h-4.57a1.118 1.118 0 1 1 0-2.238Zm0 0"/></g><g id="N" clip-path="url(#l)"><path style="stroke:none;fill-rule:nonzero;fill:#d0d4d8;fill-opacity:1" d="M44.57 13.43h2.285c.641 0 1.145.492 1.145 1.117 0 .629-.504 1.121-1.145 1.121H44.57a1.118 1.118 0 1 1 0-2.238Zm0 0"/></g><g id="P" clip-path="url(#m)"><path style="stroke:none;fill-rule:nonzero;fill:#d0d4d8;fill-opacity:1" d="M44.57 17.906h2.285c.641 0 1.145.492 1.145 1.117 0 .63-.504 1.122-1.145 1.122H44.57a1.118 1.118 0 1 1 0-2.239Zm0 0"/></g><g id="R" clip-path="url(#n)"><path style="stroke:none;fill-rule:nonzero;fill:#d0d4d8;fill-opacity:1" d="M26.285 35.809h20.57c.641 0 1.145.492 1.145 1.12 0 .626-.504 1.118-1.145 1.118h-20.57a1.118 1.118 0 1 1 0-2.238Zm0 0"/></g><g id="T" clip-path="url(#o)"><path style="stroke:none;fill-rule:nonzero;fill:#d0d4d8;fill-opacity:1" d="M17.145 35.809h4.57a1.118 1.118 0 1 1 0 2.238h-4.57c-.641 0-1.145-.492-1.145-1.117 0-.63.504-1.121 1.145-1.121Zm0 0"/></g><g id="V" clip-path="url(#p)"><path style="stroke:none;fill-rule:nonzero;fill:#d0d4d8;fill-opacity:1" d="M35.43 44.762h11.425c.641 0 1.145.492 1.145 1.12 0 .626-.504 1.118-1.145 1.118H35.43c-.64 0-1.145-.492-1.145-1.117 0-.63.504-1.121 1.145-1.121Zm0 0"/></g><g id="X" clip-path="url(#q)"><path style="stroke:none;fill-rule:nonzero;fill:#d0d4d8;fill-opacity:1" d="M17.145 44.762h13.71c.641 0 1.145.492 1.145 1.12 0 .626-.504 1.118-1.145 1.118h-13.71C16.504 47 16 46.508 16 45.883c0-.63.504-1.121 1.145-1.121Zm0 0"/></g><g id="Z" clip-path="url(#r)"><path style="stroke:none;fill-rule:nonzero;fill:#d0d4d8;fill-opacity:1" d="M17.145 13.43H24c.64 0 1.145.492 1.145 1.117 0 .629-.504 1.121-1.145 1.121h-6.855c-.641 0-1.145-.492-1.145-1.121 0-.625.504-1.117 1.145-1.117Zm0 0"/></g><g id="ab" clip-path="url(#s)"><path style="stroke:none;fill-rule:nonzero;fill:#d0d4d8;fill-opacity:1" d="M17.145 17.906H24c.64 0 1.145.492 1.145 1.117 0 .63-.504 1.122-1.145 1.122h-6.855c-.641 0-1.145-.493-1.145-1.122 0-.625.504-1.117 1.145-1.117Zm0 0"/></g><filter id="a" filterUnits="objectBoundingBox" x="0%" y="0%" width="100%" height="100%"><feColorMatrix in="SourceGraphic" values="0 0 0 0 1 0 0 0 0 1 0 0 0 0 1 0 0 0 1 0"/></filter></defs><path style="stroke:none;fill-rule:nonzero;fill:#56b3b4;fill-opacity:1" d="M35.43 8.953h2.285a1.118 1.118 0 1 1 0 2.238H35.43c-.64 0-1.145-.492-1.145-1.12 0-.626.504-1.118 1.145-1.118Zm0 0"/><path style="stroke:none;fill-rule:nonzero;fill:#ea5e5e;fill-opacity:1" d="M1.145 44.762H12.57c.64 0 1.145.492 1.145 1.12 0 .626-.504 1.118-1.145 1.118H1.145C.504 47 0 46.508 0 45.883c0-.63.504-1.121 1.145-1.121Zm0 0"/><path style="stroke:none;fill-rule:nonzero;fill:#bf85bf;fill-opacity:1" d="M28.57 26.855h6.86a1.118 1.118 0 1 1 0 2.239h-6.86a1.118 1.118 0 1 1 0-2.238Zm0 0"/><path style="stroke:none;fill-rule:nonzero;fill:#ea5e5e;fill-opacity:1" d="M14.855 26.855H24c.64 0 1.145.493 1.145 1.122 0 .625-.504 1.117-1.145 1.117h-9.145a1.12 1.12 0 0 1-1.14-1.117 1.12 1.12 0 0 1 1.14-1.122Zm0 0"/><path style="stroke:none;fill-rule:nonzero;fill:#56b3b4;fill-opacity:1" d="M1.145 26.855h9.14c.64 0 1.145.493 1.145 1.122 0 .625-.504 1.117-1.145 1.117h-9.14C.504 29.094 0 28.602 0 27.977c0-.63.504-1.122 1.145-1.122Zm0 0"/><path style="stroke:none;fill-rule:nonzero;fill:#bf85bf;fill-opacity:1" d="M1.145 35.809H12.57c.64 0 1.145.492 1.145 1.12 0 .626-.504 1.118-1.145 1.118H1.145C.504 38.047 0 37.555 0 36.93c0-.63.504-1.121 1.145-1.121Zm0-17.903H12.57c.64 0 1.145.492 1.145 1.117 0 .63-.504 1.122-1.145 1.122H1.145C.504 20.145 0 19.652 0 19.023c0-.625.504-1.117 1.145-1.117Zm0 0"/><path style="stroke:none;fill-rule:nonzero;fill:#f7ba3e;fill-opacity:1" d="M12.57 4.477h22.86a1.118 1.118 0 1 1 0 2.238H12.57a1.118 1.118 0 1 1 0-2.238Zm0 0"/><path style="stroke:none;fill-rule:nonzero;fill:#ea5e5e;fill-opacity:1" d="M1.145 4.477H8c.64 0 1.145.492 1.145 1.117 0 .629-.504 1.12-1.145 1.12H1.145C.504 6.715 0 6.224 0 5.595c0-.625.504-1.117 1.145-1.117Zm0 0"/><path style="stroke:none;fill-rule:nonzero;fill:#f7ba3e;fill-opacity:1" d="M10.285 40.285h2.285c.64 0 1.145.492 1.145 1.121 0 .625-.504 1.117-1.145 1.117h-2.285a1.118 1.118 0 1 1 0-2.238Zm0 0"/><path style="stroke:none;fill-rule:nonzero;fill:#56b3b4;fill-opacity:1" d="M10.285 13.43h2.285c.64 0 1.145.492 1.145 1.117 0 .629-.504 1.121-1.145 1.121h-2.285a1.118 1.118 0 1 1 0-2.238Zm-9.14 26.855h4.57a1.118 1.118 0 1 1 0 2.238h-4.57C.504 42.523 0 42.031 0 41.406c0-.629.504-1.12 1.145-1.12Zm0 0"/><path style="stroke:none;fill-rule:nonzero;fill:#f7ba3e;fill-opacity:1" d="M1.145 13.43h4.57a1.118 1.118 0 1 1 0 2.238h-4.57C.504 15.668 0 15.176 0 14.547c0-.625.504-1.117 1.145-1.117Zm0 0"/><use xlink:href="#t" mask="url(#u)"/><use xlink:href="#v" mask="url(#w)"/><use xlink:href="#x" mask="url(#y)"/><path style="stroke:none;fill-rule:nonzero;fill:#56b3b4;fill-opacity:1" d="M19.43 22.383h18.285c.64 0 1.14.492 1.14 1.117s-.5 1.117-1.14 1.117H19.43c-.64 0-1.145-.492-1.145-1.117s.504-1.117 1.145-1.117Zm0 0"/><path style="stroke:none;fill-rule:nonzero;fill:#f7ba3e;fill-opacity:1" d="M8 22.383h6.855c.641 0 1.145.492 1.145 1.117s-.504 1.117-1.145 1.117H8c-.64 0-1.145-.492-1.145-1.117S7.36 22.383 8 22.383Zm0 0"/><path style="stroke:none;fill-rule:nonzero;fill:#ea5e5e;fill-opacity:1" d="M1.145 22.383H3.43c.64 0 1.14.492 1.14 1.117s-.5 1.117-1.14 1.117H1.145C.504 24.617 0 24.125 0 23.5s.504-1.117 1.145-1.117Zm0 0"/><path style="stroke:none;fill-rule:nonzero;fill:#bf85bf;fill-opacity:1" d="M21.715 8.953h9.14c.641 0 1.145.492 1.145 1.117 0 .63-.504 1.121-1.145 1.121h-9.14c-.64 0-1.145-.492-1.145-1.12 0-.626.504-1.118 1.145-1.118Zm0 0"/><path style="stroke:none;fill-rule:nonzero;fill:#56b3b4;fill-opacity:1" d="M1.145 8.953h16c.636 0 1.14.492 1.14 1.117a1.12 1.12 0 0 1-1.14 1.121h-16C.504 11.191 0 10.7 0 10.071c0-.626.504-1.118 1.145-1.118Zm0 0"/><path style="stroke:none;fill-rule:nonzero;fill:#f7ba3e;fill-opacity:1" d="M8 31.332h20.57c.64 0 1.145.492 1.145 1.121 0 .625-.504 1.117-1.145 1.117H8c-.64 0-1.145-.492-1.145-1.117 0-.629.504-1.121 1.145-1.121Zm0 0"/><path style="stroke:none;fill-rule:nonzero;fill:#bf85bf;fill-opacity:1" d="M1.145 31.332H3.43a1.118 1.118 0 1 1 0 2.238H1.145C.504 33.57 0 33.078 0 32.453c0-.629.504-1.121 1.145-1.121Zm0 0"/><path style="stroke:none;fill-rule:nonzero;fill:#ea5e5e;fill-opacity:1" d="M28.57 13.43H40c.64 0 1.145.492 1.145 1.117 0 .629-.504 1.121-1.145 1.121H28.57a1.118 1.118 0 1 1 0-2.238Zm0 0"/><path style="stroke:none;fill-rule:nonzero;fill:#f7ba3e;fill-opacity:1" d="M28.57 17.906H40c.64 0 1.145.492 1.145 1.117 0 .63-.504 1.122-1.145 1.122H28.57a1.118 1.118 0 1 1 0-2.239Zm0 0"/><path style="stroke:none;fill-rule:nonzero;fill:#56b3b4;fill-opacity:1" d="M1.145 0H28.57c.64 0 1.145.492 1.145 1.117 0 .63-.504 1.121-1.145 1.121H1.145C.504 2.238 0 1.746 0 1.118 0 .491.504 0 1.145 0Zm0 0"/><use xlink:href="#z" mask="url(#A)"/><use xlink:href="#B" mask="url(#C)"/><use xlink:href="#D" mask="url(#E)"/><use xlink:href="#F" mask="url(#G)"/><use xlink:href="#H" mask="url(#I)"/><use xlink:href="#J" mask="url(#K)"/><use xlink:href="#L" mask="url(#M)"/><use xlink:href="#N" mask="url(#O)"/><use xlink:href="#P" mask="url(#Q)"/><use xlink:href="#R" mask="url(#S)"/><use xlink:href="#T" mask="url(#U)"/><use xlink:href="#V" mask="url(#W)"/><use xlink:href="#X" mask="url(#Y)"/><use xlink:href="#Z" mask="url(#aa)"/><use xlink:href="#ab" mask="url(#ac)"/></svg>