<svg xmlns="http://www.w3.org/2000/svg" width="48" height="48"><path style="stroke:none;fill-rule:nonzero;fill:#8080f2;fill-opacity:1" d="M14.516 18.262 23.633 13a.727.727 0 0 1 .734 0l9.117 5.262c.23.133.371.375.371.64V29.43a.74.74 0 0 1-.37.64l-9.118 5.254a.734.734 0 0 1-.738 0l-9.113-5.25a.735.735 0 0 1-.371-.637V18.902c0-.261.14-.507.37-.64"/><path style="stroke:none;fill-rule:nonzero;fill:#4b32c3;fill-opacity:1" d="M47.703 23.059 36.81 4.109c-.395-.687-1.125-1.183-1.914-1.183H13.109c-.793 0-1.523.504-1.918 1.191L.297 23.023a2.264 2.264 0 0 0 0 2.239L11.19 44.047c.395.687 1.125 1.035 1.918 1.035h21.786c.789 0 1.52-.34 1.917-1.023L47.703 25.23a2.14 2.14 0 0 0 0-2.171m-9.02 9.113a.801.801 0 0 1-.41.676l-13.875 8.004a.783.783 0 0 1-.785 0L9.73 32.848a.801.801 0 0 1-.41-.676V16.16a.788.788 0 0 1 .407-.676L23.602 7.48a.783.783 0 0 1 .785 0l13.886 8.004a.8.8 0 0 1 .41.676Zm0 0"/></svg>