<svg xmlns="http://www.w3.org/2000/svg" width="48" height="48"><linearGradient id="a" x1="18.405" x2="33.814" y1="10.91" y2="43.484" gradientUnits="userSpaceOnUse"><stop offset="0" stop-color="#32bdef"/><stop offset="1" stop-color="#1ea2e4"/></linearGradient><path fill="url(#a)" d="m39 10-2.835 31.181A2 2 0 0 1 34.174 43H13.826a2 2 0 0 1-1.992-1.819L9 10h30z"/><path fill="#0176d0" d="M32 7a2 2 0 0 0-2-2H18a2 2 0 0 0-2 2v1h16V7z"/><path fill="#007ad9" d="M7 9.886c0-.523.358-.974.868-1.086C10.173 8.293 16.763 7 24 7s13.827 1.293 16.132 1.8a1.114 1.114 0 0 1-.246 2.2H8.114A1.114 1.114 0 0 1 7 9.886z"/></svg>