<svg xmlns="http://www.w3.org/2000/svg" width="108" height="48" viewBox="0 0 107 48"><defs><linearGradient id="a" gradientUnits="userSpaceOnUse" x1="464.315" y1="532.267" x2="464.315" y2="108.459" gradientTransform="matrix(.11134 0 0 -.11189 2.195 59.848)"><stop offset=".15" style="stop-color:#2a4f84;stop-opacity:1"/><stop offset=".388" style="stop-color:#294e82;stop-opacity:1"/><stop offset="1" style="stop-color:#172e4e;stop-opacity:1"/></linearGradient></defs><path style="fill:url(#a)" d="M101.242 38.566c0 5.032-4.094 9.145-9.101 9.145H15.645c-5.008 0-9.102-4.113-9.102-9.145V9.441c0-5.03 4.094-9.148 9.102-9.148H92.14c5.007 0 9.101 4.117 9.101 9.148Zm0 0"/><path style="fill:#f6f6f6" d="M85.242 23.383c3.996 1.402 5.996 3.812 5.996 7.219 0 2.242-.832 4.023-2.484 5.34-1.652 1.32-4.008 2.136-7.078 2.136-3.067 0-5.903-.894-8.516-2.36.028-.777.23-1.632.606-2.558.379-.926.82-1.66 1.332-2.2 2.402 1.255 4.492 1.884 6.265 1.884.836 0 1.489-.14 1.938-.426.453-.285.68-.664.68-1.145 0-.898-.696-1.57-2.079-2.02l-2.48-.94c-3.758-1.375-5.633-3.618-5.633-6.731 0-2.273.79-4.074 2.363-5.406 1.578-1.332 3.707-2.477 6.38-2.477 1.323 0 2.78.188 4.374.559 1.59.375 2.899 1.297 3.918 1.805.063.84-.105 1.757-.492 2.761-.394 1-.871 1.711-1.445 2.13-2.528-1.138-4.63-1.704-6.313-1.704-.601 0-1.054.133-1.375.402-.316.27-.469.614-.469 1.035 0 .715.57 1.286 1.711 1.704Zm-19.972 0c4 1.402 5.996 3.812 5.996 7.219 0 2.242-.829 4.023-2.48 5.34-1.653 1.32-4.013 2.136-7.079 2.136-3.062 0-5.906-.894-8.52-2.36.032-.777.235-1.632.61-2.558.375-.926.82-1.66 1.332-2.2 2.402 1.255 4.492 1.884 6.266 1.884.84 0 1.488-.14 1.937-.426.453-.285.68-.664.68-1.145 0-.898-.696-1.57-2.078-2.02l-2.48-.94c-3.755-1.375-5.634-3.618-5.634-6.731 0-2.273.79-4.074 2.367-5.406 1.579-1.332 3.704-2.477 6.376-2.477 1.324 0 2.78.188 4.37.559 1.594.375 2.903 1.297 3.922 1.805.063.84-.105 1.757-.492 2.761-.39 1-.87 1.711-1.445 2.13-2.527-1.138-4.629-1.704-6.313-1.704-.601 0-1.058.133-1.375.402-.316.27-.472.614-.472 1.035 0 .715.57 1.286 1.715 1.704Zm-14.563.317c0-1.38-.219-2.65-.652-3.817-.434-1.168-1.059-2.168-1.871-3.004-.813-.84-1.793-1.496-2.95-1.977-1.16-.476-2.46-1.199-3.902-1.199-1.71 0-3.207.781-4.484 1.379-1.278.598-2.328 1.422-3.157 2.469-.828 1.047-1.441 2.281-1.847 3.699-.407 1.422-.61 2.969-.61 4.645 0 1.734.164 3.335.496 4.8.332 1.465.895 2.735 1.692 3.813.797 1.078 1.832 1.914 3.11 2.512a11.116 11.116 0 0 0 4.757 1.058c3.484 0 6.43-1.016 8.832-2.719-.234-1.734-.851-3.113-1.836-4.129-1.23.465-2.316.797-3.258 1-.941.2-1.773.301-2.492.301-1.437 0-2.472-.367-3.097-1.11-.63-.737-.973-1.612-1.036-2.94h11.723c.387-1.258.582-2.958.582-4.782Zm-12.348.308c.09-1.528.368-3.16.828-3.832.461-.672 1.168-1.012 2.126-1.012.984 0 1.722.36 2.214 1.078.493.719.739 2.164.739 3.27v.496Zm0 0"/><path style="fill-rule:nonzero;fill:#f6f6f6;stroke-width:5.1509;stroke-linecap:butt;stroke-linejoin:miter;stroke:#404040;stroke-opacity:1;stroke-miterlimit:10" d="M799.946 559.086c-11.437 10.02-18.068 24.404-18.068 43.187v70.033c0 23.287-7.157 40.987-23.33 53.172-16.138 12.149-34.978 18.189-56.484 18.747l-12.735-.07v-34.912c11.227-3.281 15.858-7.087 20.313-11.416 8.104-7.296 14.314-19.202 14.314-35.75v-56.523c.28-19.236 1.754-34.283 8.77-45.176 7.018-10.857 20.7-20.388 41.013-28.593-22.453-10.264-37.504-23.705-45.187-40.254-4.526-9.81-4.631-23.076-4.631-39.764v-51.845c0-17.142-5.578-29.117-12.49-35.96-4.49-4.468-9.683-8.064-22.102-10.752v-32.748c15.19.14 22.84-.035 31.68 0 13.612-.14 25.014 7.332 34.943 15.082 10.806 8.484 18.489 19.97 22.98 34.458 2.56 8.344 2.946 16.34 2.946 23.915v59.98c0 21.19 6.245 36.936 16.946 47.2 6.034 5.97 14.524 11.417 29.119 16.34v27.091c-12.91 3.596-21.05 8.449-27.997 14.558ZM-5.249 320.462v.07c-4.35-.035-8.28-.07-11.437-.035-13.612-.14-25.014 7.297-34.943 15.082-10.806 8.484-20.068 19.586-22.98 34.458-1.648 8.693-1.298 16.304-1.298 23.915v59.98c0 21.19-7.893 36.901-18.559 47.2-6.034 5.97-18.874 11.417-33.504 16.34v27.091c12.98 3.561 25.435 8.414 32.347 14.558 11.437 9.985 19.716 24.369 19.716 43.187v70.033c0 23.287 5.543 40.987 21.682 53.137 16.173 12.149 34.978 18.224 56.484 18.782l14.384-.07v-34.947C5.416 705.962-.83 702.156-5.32 697.863c-8.07-7.332-12.665-19.238-12.665-35.75v-56.559c-.316-19.236-3.403-34.283-10.42-45.176-7.017-10.857-20.664-20.388-41.012-28.593 22.453-10.264 37.504-23.67 45.187-40.219 4.526-9.845 6.245-23.076 6.245-39.764v-51.845c0-17.142 3.964-29.152 10.876-35.994 3.718-3.736 10.384-6.773 19.611-9.252l14.595.105v-34.354Zm0 0" transform="matrix(.11134 0 0 .11189 14.534 -35.563)"/><path style="fill:#f6f6f6" d="M28.938 32.086h-1.22c-1.323 0-1.82-.7-1.82-2.106V4.164c0-1.55-.449-2.644-1.02-3.27-.57-.628-1.562-.62-2.972-.62h-2.75l-.324-.008v.027l-.004 3.844V31.23c0 2.157.485 3.73 1.34 4.735.86 1.004 2.309 1.504 4.352 1.504 1.41 0 3.02-.153 4.82-.45.094-.304.137-.953.137-1.945a8.74 8.74 0 0 0-.54-2.988Zm0 0"/></svg>