<svg xmlns="http://www.w3.org/2000/svg" width="48" height="48"><path style="fill:#ffffffa3" d="m42.102 9.93-15.149-9a5.698 5.698 0 0 0-5.851 0l-15.149 9c-1.808 1.066-2.926 3.054-2.926 5.203V33.12c0 2.149 1.118 4.137 2.926 5.203l15.149 8.992a5.733 5.733 0 0 0 2.925.805c1.012 0 2.016-.27 2.926-.805l15.149-8.992c1.812-1.078 2.925-3.054 2.925-5.203V15.133c0-2.149-1.113-4.137-2.925-5.203Zm0 0"/><path style="fill:#283037" d="m42.102 9.93-15.149-9a5.727 5.727 0 0 0-2.926-.81 5.759 5.759 0 0 0-2.925.809l-15.149 9c-1.808 1.066-2.926 3.054-2.926 5.203V33.12c0 2.149 1.118 4.137 2.926 5.203l15.149 8.992a5.733 5.733 0 0 0 2.925.805c1.012 0 2.016-.27 2.926-.805l15.149-8.992c1.812-1.078 2.925-3.054 2.925-5.203V15.133c0-2.149-1.113-4.137-2.925-5.203ZM21.637 46.398 6.488 37.406c-1.48-.883-2.402-2.523-2.402-4.285V15.133c0-1.766.922-3.406 2.402-4.285l15.149-8.993a4.725 4.725 0 0 1 2.39-.656c.836 0 1.668.227 2.391.656l15.152 8.993c1.246.738 2.09 2.023 2.325 3.468-.508-1.07-1.633-1.37-2.954-.59l-14.336 8.86c-1.789 1.039-3.101 2.219-3.101 4.367v17.664c0 1.293.516 2.125 1.32 2.371a4.48 4.48 0 0 1-.797.075 4.79 4.79 0 0 1-2.39-.665Zm0 0"/><path style="fill:#4da825" d="m38.137 34.855-3.778 2.262c-.101.055-.18.121-.18.242v.985c0 .12.087.168.18.113l3.836-2.324c.102-.059.11-.172.11-.293v-.871c.011-.121-.075-.168-.168-.114Zm0 0"/><path style="fill:#fff" d="M30.102 26.55c.125-.066.226.02.226.177l.008 1.304c.547-.215 1.023-.273 1.453-.18.094.032.133.153.094.301l-.29 1.153a.499.499 0 0 1-.132.234.196.196 0 0 1-.074.059c-.035.02-.075.027-.114.02-.195-.048-.664-.153-1.394.222-.77.394-1.043 1.058-1.031 1.558.007.59.308.778 1.359.786 1.395.02 2.004.636 2.016 2.043.02 1.39-.723 2.87-1.856 3.789l.028 1.293c0 .16-.106.34-.227.394l-.77.442c-.12.066-.222-.012-.222-.168l-.012-1.278c-.656.274-1.32.34-1.742.168-.086-.027-.113-.148-.086-.281l.281-1.172a.47.47 0 0 1 .14-.242c.032-.02.048-.04.079-.055.047-.02.082-.031.121-.012.457.153 1.04.086 1.602-.207.714-.363 1.191-1.086 1.183-1.816-.012-.656-.367-.93-1.23-.937-1.098 0-2.13-.215-2.145-1.84-.012-1.328.684-2.72 1.781-3.598l-.011-1.305c0-.16.093-.336.226-.402Zm0 0"/></svg>